<?xml version="1.0" encoding="utf-8"?><!DOCTYPE svg PUBLIC "-//W3C//DTD SVG 1.1//EN" "http://www.w3.org/Graphics/SVG/1.1/DTD/svg11.dtd">

<!-- Uploaded to: SVG Repo, www.svgrepo.com, Generator: SVG Repo Mixer Tools -->
<svg viewBox="0 0 96 96" xmlns="http://www.w3.org/2000/svg">

<path d="M31.185 6.277c-.583.702-1.777 4.432-2.654 8.288-2.687 11.812-5.829 15.138-16.031 16.97-10.176 1.827-10.38 7.903-.574 17.103 8.662 8.126 9.506 10.269 6.877 17.451l-3.892 10.636c-4.946 13.521.115 15.721 16.749 7.284 11.735-5.953 14.054-6.154 19.087-1.653 9.873 8.827 13.568 7.704 17.147-5.212 2.622-9.466 2.904-9.748 11.25-11.239 8.564-1.531 11.862-3.822 11.841-8.228-.02-4.106-.225-4.362-8.398-10.504-10.23-7.686-10.255-7.745-7.63-17.512 3.209-11.943 2.65-16.07-2.232-16.473-2.472-.204-5.707.573-9.371 2.25-7.55 3.457-9.313 3.263-15.393-1.688C36.808 4.666 33.679 3.272 31.185 6.277m4.417 11.973C33.678 28.329 27.544 35.657 19 38.083c-2.475.703-4.669 1.403-4.876 1.556-.206.153 2.104 2.544 5.133 5.313 9.564 8.741 10.811 14.663 5.667 26.907-1.692 4.027-2.84 7.558-2.552 7.846.289.289 3.36-1.044 6.826-2.962 12.501-6.916 17.491-7.153 25.288-1.202 5.669 4.328 5.003 4.664 7.015-3.543C63.813 62.561 70.02 58 80.549 58c2.587 0 1.55-1.59-3.299-5.06-11.132-7.966-13.085-12.395-10.242-23.223 2.259-8.607 2.31-8.53-3.913-5.853-8.204 3.529-12.083 2.616-21.234-5.002-5.604-4.666-5.487-4.654-6.259-.612" fill-rule="evenodd"/>

</svg>