<svg xmlns="http://www.w3.org/2000/svg" viewBox="0 0 128 128">
   
        <path fill="#fff"
            d="m46.25 99.25-16.5-8.38 1.13-11.63-2.63-13.13 11-10.88 49 2.13 11.63 8.63-4.5 24.38-17.13 9.13-32-.25z" />
        <path
            d="m62.96 145.53-31.75-15.54a1.51 1.51 0 0 1-.74-.99l-6.5-35.35c-.11-.67.38-1.06.98-.78l38.25 16.67a3.49 3.49 0 0 0 2.09 0l35.99-16.64c.6-.28 1.06.15.95.78l-6.15 35.35a1.72 1.72 0 0 1-.7.99l-29.85 15.5h-.03a3.13 3.13 0 0 1-1.31.26 2.68 2.68 0 0 1-1.23-.25zm-4.66-46.2h-.18a12.8 12.8 0 0 0-8.12 2.93l-.96-.42c.04-.17.09-.33.13-.5a4.15 4.15 0 0 0-.55.5l-14.09-6.15a6.25 6.25 0 0 1 .6-.85c.1-.14.28-.28.39-.42-.6.25-1.24.56-1.91.88l-10.1-4.41a.85.85 0 0 0-.5-.07 11.64 11.64 0 0 0-.07-1.52c-.28-2.69.43-5.62 4.49-7.91-2.16.03-5.9 1.52-8.94-1.42s-3.92-3.17-5.4-3.14c1.7-.78 2.44-1.52 3.15-4.13s2.43-5.09 7.03-5.76c-2.02-.74-6.04-.74-7.85-4.55-1.76-3.82-2.47-4.38-3.92-4.88 1.88-.1 2.83-.53 4.42-2.72s4.1-3.88 8.65-2.82c-1.62-1.42-5.37-2.86-5.65-7.1-.28-4.2-.74-4.98-1.87-5.97 1.77.6 2.83.53 5.09-.92s5.22-2.12 9.07.5c-.99-1.91-3.99-4.63-2.72-8.66s1.13-4.91.39-6.25c1.45 1.2 2.44 1.52 5.09.99s5.65-.11 8.3 3.74c-.25-2.11-2.05-5.75.6-9.04s2.82-4.16 2.61-5.68c.92 1.62 1.73 2.3 4.38 2.75s5.3 1.94 6.39 6.46c.53-2.08.18-6.11 3.82-8.22s4.13-2.9 4.48-4.35c.28 1.84.78 2.76 3.11 4.13 2.3 1.38 4.24 3.71 3.6 8.34 1.27-1.73 2.37-5.62 6.53-6.29s4.91-1.2 5.76-2.44c-.42 1.84-.25 2.87 1.38 4.98 1.66 2.12 2.61 5.02.35 9.08 1.8-1.16 4.24-4.38 8.37-3.5s5.02.67 6.25-.18c-1.06 1.56-1.27 2.58-.49 5.16s1.55 5.44-2.02 8.41c2.12-.71 5.16-2.02 8.13-.07 3.53 2.33 4.41 2.43 5.9 2.08-1.56 1.06-2.12 1.94-2.33 4.63s-1.63 5.51-6.04 7.03c2.12.35 6.29-.46 8.72 2.96s3.25 3.85 4.74 4.06c-1.8.43-2.69 1.06-3.85 3.47s-3.54 4.55-8.2 4.34c1.84 1.09 6 1.84 7.06 5.93s1.63 4.77 2.94 5.51c-1.84-.24-2.9 0-4.84 1.84s-4.95 2.97-9.19 1.13c1.35 1.7 4.95 3.88 4.45 8.09s-.21 5.05.75 6.21a4.77 4.77 0 0 0-2.48-.74l.5-2.79c.1-.7-.36-1.09-.99-.81l-8.62 3.99a12.03 12.03 0 0 1-2.58-1.94c.22.7.67 1.62 1.1 2.61l-13.39 6.18c-.1-.21-.21-.46-.35-.7v.84l-1.17.53a14.6 14.6 0 0 0-8.05-2.93 5.63 5.63 0 0 1-5.65 5.48 5.64 5.64 0 0 1-5.65-5.51zM33.01 79.66c-1.8 2.68-3.89 8.26.49 12.04a17.04 17.04 0 0 0 2.48 1.77c6.81 4.02 18.71 6.14 27.4 5.93a71.97 71.97 0 0 0 5.9-.35c9.15-.82 19.67-3.22 23.45-8.83v.1c3-4.45 2.37-7.8 1.1-9.6 2.47-4.14 3.39-8.83 3.92-13.88a6.38 6.38 0 0 1-1.52.35 17.98 17.98 0 0 0-4.11.88c1.47 1.89 1.66 4.68.86 8.8-.74 4.02-2.05 6.5-4.17 8.01a12.89 12.89 0 0 1-11.76 1.49 13.84 13.84 0 0 1-6.04-4.03 13 13 0 0 1-1.7-6.32c0-1.45-.03-1.59-.81-1.8a49.81 49.81 0 0 0-9.18 0c-.71.21-.82-.36-.82 1.37a16.07 16.07 0 0 1-1.2 5.8c-1.2 2.36-4.98 4.8-8.68 5.58-4.67.95-9.82-1.03-12.01-4.67-1.94-3.28-2.9-10.84-1.66-13.27a4.61 4.61 0 0 1 .48-.76 16.58 16.58 0 0 0-4.58-.94c-.42-.07-.81-.11-1.17-.18.54 4.49 1.2 8.73 3.33 12.51zm39.48-11.73c-1.41 1.17-1.94 2.86-2.11 6.5-.18 4.06.35 6.08 2.04 7.95 2.3 2.51 7.17 4.34 10.35 3.92 3.5-.46 6.75-2.47 8.02-4.98 1.55-3.07 2.3-9.78 1.3-11.87a4.2 4.2 0 0 0-.68-1.01 3.92 3.92 0 0 0-1.01 1.01 5.96 5.96 0 0 0 .23-1.7 13.31 13.31 0 0 0-5.25-1.93h.04a20.24 20.24 0 0 0-3.05-.36 5.43 5.43 0 0 0 .08.78 8.11 8.11 0 0 0-.55-.8h-.44c-3.62 0-7.1.91-8.97 2.49zm-37.04 7.52c.7 4.14 1.51 6.08 3.32 7.88 3.7 3.71 9.74 3.92 14.83.56a7.42 7.42 0 0 0 3.56-4.83c.89-3.32.39-8.45-.98-10.39-.75-1.02-3.39-2.33-5.94-2.86a19.37 19.37 0 0 0-3.27-.39 4.01 4.01 0 0 0-2.56 1.88 2.35 2.35 0 0 0-.2-1.8 19.18 19.18 0 0 0-4.81 1.09 6.85 6.85 0 0 0-2.99 1.94 4.14 4.14 0 0 1 .23.85 2.67 2.67 0 0 0-.44-.57c-1.07 1.49-1.27 3.6-.76 6.65l.01-.01zm33.16-2.08c.56.18.67.07.85-.95a10 10 0 0 1 1.8-4.7c1.7-1.84 5.66-3.05 9.73-3.14a6.92 6.92 0 0 0-3.02-.92c-2.65-.36-5.37-1.73-6.64-6.22-.46 2.08.45 6.96-3.08 9.22-3.56 2.26-5.54 2.33-5.83 3.78-.35-1.84-.35-2.79-2.71-4.1-2.37-1.27-3.82-3.6-3.39-8.23-1.17 1.8-2.12 5.72-6.26 6.53l-.81.17h.04c5.54.75 8.23 2.83 8.76 6.71.24 1.95.31 1.98 2.36 1.63a20.26 20.26 0 0 1 3.08-.18 25.43 25.43 0 0 1 5.12.4zm-30.8-9.11c-1.26 1.64-1.62 2.54-1.63 3.21A12.91 12.91 0 0 1 43 64.79l-.07.03q.36-.04.69-.08c-.37-.4-.83-.87-1.4-1.54l-1.7-4.27a14.22 14.22 0 0 1-2.71 5.33zm46.41.49a16.28 16.28 0 0 1 6.17 1.82 8.65 8.65 0 0 0-1.26-2.13c-1.59-2.16-4.24-2.23-1.91-6.26a9 9 0 0 0-2.37 2.3 12.95 12.95 0 0 0-2.39 4.12c.59.03 1.18.08 1.76.15zm-61.6 27.97.21 1.17a3.24 3.24 0 0 0-1.37.39 5.12 5.12 0 0 0 1.17-1.55l-.01-.01zm35.57.43-.04.03c.18-.49.78.6 1.91.6s2.54-.84 3.78-.88a7.22 7.22 0 0 1 1.92.32 6.44 6.44 0 0 0 1.86.32c1.02-.07 1.59-1.06 1.83-.68.21.43-.99 1.1-1.9 1.1s-2.4-1.02-3.68-.99-2.86 1.2-3.88 1.2-1.98-.53-1.81-1.02h.01zm-11.27-1.56a.53.53 0 0 1 .53-.53.53.53 0 0 1 .53.53.53.53 0 0 1-.53.54.53.53 0 0 1-.53-.54zm31.08.04a.35.35 0 0 1 .35-.35.35.35 0 0 1 .36.35.35.35 0 0 1-.36.35.35.35 0 0 1-.35-.35zm-33.16-1.87a.53.53 0 0 1 .53-.53.53.53 0 0 1 .53.53.53.53 0 0 1-.53.53.53.53 0 0 1-.53-.53zm35.03-.07a.35.35 0 0 1 .35-.35.35.35 0 0 1 .36.35.35.35 0 0 1-.36.35.35.35 0 0 1-.35-.35zm-3.28-.25a.53.53 0 0 1 .53-.53.53.53 0 0 1 .53.53.53.53 0 0 1-.53.53.53.53 0 0 1-.53-.53zm-28.33-.21a.35.35 0 0 1 .35-.35.35.35 0 0 1 .36.35.35.35 0 0 1-.36.35.35.35 0 0 1-.34-.35h-.01zm26.33-11.24c0-3.7 2.13-6.71 4.76-6.71s4.77 3 4.77 6.71-2.13 6.71-4.77 6.71-4.76-3-4.76-6.71zm-30.73 0c0-3.7 2.13-6.71 4.77-6.71s4.77 3 4.77 6.71-2.14 6.71-4.77 6.71-4.77-3-4.77-6.71z" />
   
</svg>