<svg xmlns="http://www.w3.org/2000/svg" viewBox="0 0 512 512">
  <path
    d="M 255.9991302490234 509.5001525878906 C 229.5150604248047 509.5001525878906 202.6750640869141 508.826171875 176.2247314453125 507.496826171875 C 149.7820281982422 506.1679077148438 123.0167007446289 504.1482238769531 96.67286682128906 501.4939575195312 C 85.78056335449219 499.758056640625 75.30274200439453 496.3284606933594 65.52999877929688 491.3000183105469 C 55.95886611938477 486.3753051757812 47.23939895629883 480.0117492675781 39.61393356323242 472.38623046875 C 31.98839950561523 464.7607727050781 25.62493324279785 456.0412902832031 20.70026588439941 446.4701538085938 C 15.67176532745361 436.6973571777344 12.24222087860107 426.2195129394531 10.5063362121582 415.3272399902344 C 7.852066516876221 388.9834594726562 5.832382202148438 362.2180480957031 4.503399848937988 335.7750244140625 C 3.174066781997681 309.3243713378906 2.500066757202148 282.4841613769531 2.5 256.0001525878906 C 2.5 229.5160217285156 3.174000024795532 202.6758880615234 4.503333568572998 176.2252197265625 C 5.832315444946289 149.7821197509766 7.851999759674072 123.0165939331055 10.50626945495605 96.67282867431641 C 12.24215412139893 85.78058624267578 15.67176532745361 75.30277252197266 20.70019912719727 65.53002166748047 C 25.62493324279785 55.95889282226562 31.98839950561523 47.2394905090332 39.61386489868164 39.6140251159668 C 47.23939895629883 31.98855781555176 55.95880126953125 25.62502479553223 65.52993011474609 20.70035743713379 C 75.30268096923828 15.67192268371582 85.78049468994141 12.24231243133545 96.67273712158203 10.50642776489258 C 123.0165634155273 7.852157592773438 149.7821655273438 5.832406997680664 176.2255401611328 4.503425121307373 C 202.6764678955078 3.174091577529907 229.5167388916016 2.500024795532227 256.0008544921875 2.500024795532227 C 282.4849243164062 2.500024795532227 309.3249206542969 3.174091577529907 335.775390625 4.503358364105225 C 362.2182312011719 5.832340240478516 388.9835815429688 7.852025032043457 415.327392578125 10.50622844696045 C 426.2196350097656 12.24211311340332 436.6973876953125 15.67172336578369 446.4701232910156 20.70022583007812 C 456.041259765625 25.62495803833008 464.7606811523438 31.98842430114746 472.3861389160156 39.61395645141602 C 480.0115966796875 47.23942565917969 486.3750610351562 55.95882415771484 491.2997436523438 65.52996063232422 C 496.3281555175781 75.30277252197266 499.7577819824219 85.78052520751953 501.49365234375 96.67276000976562 C 504.1479187011719 123.0165252685547 506.1676940917969 149.781982421875 507.4966125488281 176.2251586914062 C 508.8259887695312 202.6757507324219 509.5 229.5159606933594 509.5 256.0000305175781 C 509.5 282.4841003417969 508.8259887695312 309.32421875 507.4966735839844 335.7749633789062 C 506.1677551269531 362.2179870605469 504.1480712890625 388.9834594726562 501.4938659667969 415.3273010253906 C 499.7579650878906 426.2195434570312 496.3283081054688 436.6973571777344 491.2998657226562 446.4700927734375 C 486.3751220703125 456.0412292480469 480.0116577148438 464.7606201171875 472.3861389160156 472.3860778808594 C 464.7606811523438 480.0116271972656 456.0411987304688 486.3750915527344 446.4700622558594 491.2997436523438 C 436.6973266601562 496.3282470703125 426.2195129394531 499.7578125 415.3272094726562 501.4936828613281 C 388.9834899902344 504.14794921875 362.2178955078125 506.1677856445312 335.7744750976562 507.4967651367188 C 309.3235473632812 508.8260803222656 282.4831848144531 509.5001525878906 255.9991302490234 509.5001525878906 Z"
    fill="#ffd60a" />
  <path
    d="M 255.9990692138672 507.0001525878906 C 282.4415588378906 507.0001525878906 309.2396545410156 506.3271484375 335.6489868164062 504.9998779296875 C 362.0266723632812 503.6741638183594 388.7261352539062 501.6600341796875 415.0049743652344 499.0134887695312 C 425.6100769042969 497.3158569335938 435.8104248046875 493.9729919433594 445.3262939453125 489.0768127441406 C 454.6667785644531 484.2707214355469 463.1763000488281 478.0604553222656 470.6183471679688 470.6183776855469 C 478.0604858398438 463.1763000488281 484.2708435058594 454.6668090820312 489.0768432617188 445.3262939453125 C 493.9731750488281 435.8104248046875 497.3159790039062 425.6099548339844 499.0137023925781 415.0049438476562 C 501.6600952148438 388.7257995605469 503.6742248535156 362.0267028808594 504.9998474121094 335.6494445800781 C 506.3270568847656 309.2402954101562 507 282.4423828125 507 256.0000305175781 C 507 229.5575256347656 506.3269958496094 202.7595977783203 504.9997863769531 176.3505859375 C 503.6741333007812 149.9732666015625 501.6600036621094 123.2739791870117 499.0134582519531 96.99507141113281 C 497.3157653808594 86.39004516601562 493.9729614257812 76.18967437744141 489.0767211914062 66.67380523681641 C 484.2707214355469 57.33330535888672 478.0604248046875 48.82380676269531 470.6183471679688 41.38166427612305 C 463.1763000488281 33.93959045410156 454.6667785644531 27.72923469543457 445.3263549804688 22.9232349395752 C 435.8104858398438 18.02690124511719 425.6100158691406 14.6840991973877 415.0049743652344 12.98638916015625 C 388.7257995605469 10.33992576599121 362.0268249511719 8.325874328613281 335.6497802734375 7.000234603881836 C 309.2407836914062 5.673019886016846 282.4429321289062 5.000020027160645 256.0005798339844 5.000020027160645 C 229.5582122802734 5.000020027160645 202.7602081298828 5.673019886016846 176.3508605957031 7.000305652618408 C 149.9734649658203 8.325945854187012 123.274284362793 10.34006881713867 96.99509429931641 12.98653221130371 C 86.39006042480469 14.68424224853516 76.18958282470703 18.02704429626465 66.67371368408203 22.92330551147461 C 57.33328628540039 27.72937774658203 48.82378387451172 33.93966293334961 41.38164138793945 41.38173294067383 C 33.93957138061523 48.82387542724609 27.72928619384766 57.33337783813477 22.92321395874023 66.67380523681641 C 18.02695274353027 76.18967437744141 14.68415069580078 86.39015960693359 12.98644065856934 96.99518585205078 C 10.3399772644043 123.2742385864258 8.325854301452637 149.9733428955078 7.000214099884033 176.3507385253906 C 5.672999858856201 202.7597351074219 5 229.5577392578125 5 256.0001525878906 C 5.00007152557373 282.4425964355469 5.672999858856201 309.2405090332031 7.000285625457764 335.6495056152344 C 8.325925827026367 362.0267639160156 10.34006977081299 388.7260131835938 12.98653316497803 415.0050048828125 C 14.68417263031006 425.610107421875 18.02695274353027 435.8104248046875 22.92321395874023 445.3262939453125 C 27.72928619384766 454.6668090820312 33.93957138061523 463.1763916015625 41.3817138671875 470.6184387207031 C 48.82378387451172 478.0605773925781 57.33328628540039 484.2709350585938 66.67378234863281 489.0770263671875 C 76.18965148925781 493.9732666015625 86.39013671875 497.3160705566406 96.99523162841797 499.0137939453125 C 123.274284362793 501.6602478027344 149.9731750488281 503.6743774414062 176.3502197265625 504.9999389648438 C 202.7588500976562 506.3272399902344 229.556640625 507.0001525878906 255.9990692138672 507.0001525878906 M 255.9990539550781 512.0001220703125 C 202.71533203125 512.0001220703125 149.4326477050781 509.3248291015625 96.35063934326172 503.9741516113281 C 50.891357421875 496.7607421875 15.23942852020264 461.1087341308594 8.026143074035645 415.6494445800781 C -2.675285816192627 309.4857482910156 -2.675357103347778 202.5146636962891 8.026071548461914 96.35059356689453 C 15.23950004577637 50.89144897460938 50.891357421875 15.23959159851074 96.35050201416016 8.026163101196289 C 202.5145568847656 -2.675336122512817 309.4855346679688 -2.67533802986145 415.6495666503906 8.026020050048828 C 461.1087951660156 15.23952007293701 496.7604370117188 50.89137649536133 503.9738464355469 96.35059356689453 C 514.6754150390625 202.5145263671875 514.67529296875 309.4855346679688 503.9740600585938 415.6495056152344 C 496.7605590820312 461.1087341308594 461.1087036132812 496.7605285644531 415.6494140625 503.973876953125 L 415.6495056152344 503.973876953125 C 362.5675659179688 509.32470703125 309.2827758789062 512.0001220703125 255.9990539550781 512.0001220703125 Z"
    stroke="none" fill="#166496" />

  <path id="chytanka"
    d="M-803.964,1365.472c-27.267-1.03-46.046-2.545-54.307-4.38l37.793-2.093c-.432-.7-.847-1.406-1.248-2.085-.864-1.463-1.68-2.845-2.619-4.181a3.467,3.467,0,0,0-2.16-1.067c-2.669-.418-5.386-.81-8.013-1.189-4.154-.6-8.45-1.218-12.653-1.958a38.324,38.324,0,0,0-6.654-.656,22.223,22.223,0,0,0-8.606,1.636,36.933,36.933,0,0,1,4-2.847,62.829,62.829,0,0,1,14.474-5.646,62.824,62.824,0,0,1,15.4-1.917c.94,0,1.892.021,2.83.063.591.023,1.2.036,1.811.036A90.974,90.974,0,0,0-808,1337.359c-6.575-3-13.656-4.116-20.5-5.2-5.657-.893-11.5-1.815-17.056-3.792v-3.1l.58.753c.775-.438,1.553-.895,2.305-1.337,1.552-.913,3.156-1.855,4.788-2.663a36.239,36.239,0,0,1,5.174-1.96,25.039,25.039,0,0,1,2.6-.622c.5-.1,1.021-.207,1.6-.338-9.082-4.619-15.628-7.911-20.406-10.316-12.4-6.238-12.4-6.238-12.223-7.04l0-.009c.014-.064.094-.1.242-.1a35.726,35.726,0,0,1,5.734,1.647c1.842.6,3.928,1.282,6.212,1.974,3.589,1.088,6.689,1.9,9.476,2.489a45.9,45.9,0,0,0,9.2,1.132c.649,0,1.274-.024,1.857-.073-.285-.717-.541-1.409-.79-2.078l0-.01a31.282,31.282,0,0,0-1.826-4.285,5.514,5.514,0,0,0-2.713-2.134,23.059,23.059,0,0,1-12.214-11.227,47.972,47.972,0,0,1-2.735-6.094,20.123,20.123,0,0,1-1.148-5.182c-.241-3.148.347-6.359,2.1-11.451l-16.766-20.173.9-.927,19.673,17.1a36.275,36.275,0,0,1,3.64-2.28l.077-.037c4.724-2.3,4.724-2.3,3.733-7.354l-.016-.082c-1.289-6.522-2.243-11.56-3.094-16.333-.9-5.088-.706-8.117.687-10.458a10.425,10.425,0,0,1,3.253-3.263,35.6,35.6,0,0,1,5.594-2.946c3.011-1.327,3.847-2.805,3.193-5.653-.887-3.891-1.778-7.737-2.721-11.808l-.033-.143c-.432-1.866-.875-3.779-1.333-5.762-.864.532-1.611,1.024-2.27,1.458l0,0a21.6,21.6,0,0,1-3.406,1.979,16.964,16.964,0,0,1-7.076,1.534,17.117,17.117,0,0,1-8.317-2.161,39.885,39.885,0,0,0-5.995-2.4c-.882-.3-1.794-.607-2.672-.936,2.64-1.447,2.58-3.992,2.516-6.685a19.67,19.67,0,0,1,.11-3.348,56.519,56.519,0,0,1,1.892-7.636c.373-1.257.758-2.555,1.121-3.917l-17.58-3.553a8.581,8.581,0,0,0,4.046-4.007,18.19,18.19,0,0,0,1.441-5.293,20.5,20.5,0,0,1,1.645-5.611,15.387,15.387,0,0,1,3.01-4.33,16.652,16.652,0,0,1,4.364-3.115,24.62,24.62,0,0,1,5.707-1.963,72.239,72.239,0,0,0,3.863,14.451,72.187,72.187,0,0,0,6.764,13.342c.086-.5.162-.969.235-1.418v-.01c.157-.966.293-1.8.47-2.632a17.776,17.776,0,0,1,1.51-4.437,10.942,10.942,0,0,1,2.422-3.2,9.678,9.678,0,0,1,3.364-1.942,13.5,13.5,0,0,1,4.331-.653c.406,0,.827.014,1.254.042.172.012.339.018.5.018a2.678,2.678,0,0,0,2.112-.736,5.506,5.506,0,0,0,1-1.982c.341-.955.681-1.929,1.01-2.872l.012-.034c1.21-3.468,2.461-7.055,4.025-10.428a49.943,49.943,0,0,1,5.3-8.929,47.97,47.97,0,0,1,6.763-7.3,53.9,53.9,0,0,1,8.133-5.854,68.658,68.658,0,0,1,9.4-4.579c9.5-3.8,18.773-8.633,27.742-13.3l.086-.045c1.564-.814,3.181-1.657,4.772-2.479a46.9,46.9,0,0,0,7.125-4.9l.008-.006c1.094-.855,2.225-1.738,3.406-2.592a23.47,23.47,0,0,1-3.965,6.6,64.586,64.586,0,0,1-5.222,5.379l-.239.228c11.575-4.483,20.1-11.963,25.333-22.233,5.408-10.619,10.093-21.17,8.033-33.467h1.08c.27,4.258.568,8.928.887,13.88a37.653,37.653,0,0,1-6.146,23.556,57.633,57.633,0,0,1-7.564,9.255,115.355,115.355,0,0,1-9.263,8.3,45.972,45.972,0,0,1-11.5,6.688c-4.071,1.705-8.4,3.04-12.578,4.331l-1.879.581c-7.61,2.366-15.729,5.182-24.82,8.606-7.469,2.814-12.255,8.534-17.321,14.59l-.059.071-.753.9a18.994,18.994,0,0,0-2.731,4.281,20.7,20.7,0,0,0-1.453,4.44,49.714,49.714,0,0,0-.779,9.165,65.392,65.392,0,0,1-.424,7.134h.008c.872,0,1.725.008,2.552.015h.007c.817.007,1.589.014,2.365.014,1.846,0,3.248-.042,4.548-.136.541-.039,1.329-1.313,1.5-2.2a16.356,16.356,0,0,1,3.833-7.528,17.144,17.144,0,0,1,7.094-4.472c7.557-2.6,15.724-5.013,24.224-5.013a42.674,42.674,0,0,1,7.742.7c6.044,1.12,10.766,3.032,14.437,5.847a22.186,22.186,0,0,1,5.1,5.5,26.134,26.134,0,0,1,3.314,7.667,3.017,3.017,0,0,0,2.126,1.686.658.658,0,0,0,.094-.007,91.34,91.34,0,0,1,13.537-.98,124.167,124.167,0,0,1,18.337,1.46c.237-.842.448-1.68.652-2.49l0-.007a38.073,38.073,0,0,1,1.486-4.963c3.764-9.33,12.157-12.082,20.666-13.667a53.294,53.294,0,0,1,9.714-.887c3.826,0,14.809.261,23.51,4.663s10.98,11.3,11.294,12.942c.347,1.833,1.878,2.359,3.554,2.359a5.884,5.884,0,0,0,.787-.057,40.07,40.07,0,0,1,4.063-.325h.005c.745-.035,1.515-.072,2.386-.128-.235-1.8-.319-3.686-.4-5.512v-.006a57.682,57.682,0,0,0-.464-5.905,15.034,15.034,0,0,0-1.636-5.191c-4.658-8.238-11.459-18.316-22.793-23.153-4.859-2.075-9.967-3.791-14.906-5.451-.9-.3-1.909-.642-2.894-.976-1.9-.644-3.86-1.222-5.755-1.78l-.013,0c-2.809-.828-5.712-1.683-8.473-2.769a36.089,36.089,0,0,1-7.412-4.424l-.5-.356c-1.747-1.238-3.422-2.64-5.042-4l-.015-.012c-.706-.592-1.436-1.2-2.163-1.792l-.566.58,7.106,6.667c-1.641-.232-3.586-1.323-5.781-3.242a46.247,46.247,0,0,1-6.351-7.1,74.652,74.652,0,0,1-4.7-7.169,70.15,70.15,0,0,1-3.815-7.6,42.508,42.508,0,0,1-2.39-7.149,16.121,16.121,0,0,1-.42-5.827c.174.3.379.608.577.9a6.278,6.278,0,0,1,1.037,2.012,38.565,38.565,0,0,0,10.714,19.374l-2.174-7.14.874-.353c.871,1.155,1.723,2.359,2.547,3.524a63.474,63.474,0,0,0,6.059,7.69,53,53,0,0,0,11.207,8.273l-4.414-5.127-3.512-4.08.626-.773c.776.508,1.579,1,2.356,1.478l0,0a45.953,45.953,0,0,1,4.908,3.313,83.8,83.8,0,0,0,14.047,9.181,117.447,117.447,0,0,0,15.407,6.646,44.2,44.2,0,0,1,8.426,4.023,42.762,42.762,0,0,1,7.081,5.486,47.336,47.336,0,0,1,5.846,6.809,58.3,58.3,0,0,1,4.721,7.995c2.878,5.857,5.044,10.666,6.82,15.133.58,1.465,1.333,2.09,2.521,2.09a6.125,6.125,0,0,0,1.279-.163,21.963,21.963,0,0,1,4.584-.535,11.858,11.858,0,0,1,6.536,1.744,13.62,13.62,0,0,1,4.64,5.283,87.492,87.492,0,0,0,4.349-17.614,87.513,87.513,0,0,0,.617-18.132,127.029,127.029,0,0,0-13.741-49.714,120.418,120.418,0,0,0-28.16-35.933,134.036,134.036,0,0,0-25.482-17.712,121.165,121.165,0,0,0-29.091-10.907,132.287,132.287,0,0,0-30.056-3.566c-23.534,0-46.605,6.888-68.571,20.472-9.136,5.653-17.963,13.2-26.987,23.067-.389.442-.8.868-1.19,1.278l0,0c-.187.2-.4.417-.605.637a28.038,28.038,0,0,1-7.4-14.241,22.842,22.842,0,0,1,3.269-16.612,23.237,23.237,0,0,0,2.557-7.225c.263-1.113.534-2.264.863-3.329.759,0,1.6.064,2.49.132,1.01.077,2.051.156,3.115.156a12.951,12.951,0,0,0,3.556-.428,28.407,28.407,0,0,1,7.673-1.138,21.016,21.016,0,0,1,8.53,1.763,25.1,25.1,0,0,1,7.61,5.375,21.481,21.481,0,0,0,2.287,1.88.326.326,0,0,0,.2.044c.066,0,.146-.006.247-.015h0c.16-.013.38-.03.667-.03-.082-.454-.156-.9-.228-1.34l0-.013c-.158-.964-.308-1.873-.53-2.774-2.1-8.436.614-15.938,7.653-21.127,6.667-4.933,6.667-4.933,8.234-8.507,1.008.446,2.02.916,3,1.371,2.059.958,4.189,1.948,6.335,2.722a32.433,32.433,0,0,1,8.852,4.57,22.368,22.368,0,0,1,6.6,8.01c.169-.828.31-1.582.447-2.312.273-1.453.508-2.706.846-3.942A17.657,17.657,0,0,1-742.59,993a40.9,40.9,0,0,1,8.412-5.537l.338-.179c4.412-2.341,4.5-2.385,6.682-6.847,1.288,4.795,5.02,6.888,8.629,8.912.4.222.806.452,1.2.681a20.36,20.36,0,0,1,7.43,7.07,24.38,24.38,0,0,1,3.236,9.69c.509-.65,1-1.32,1.481-1.968a39.093,39.093,0,0,1,3.185-3.952,19.342,19.342,0,0,1,5.978-4.173,33.949,33.949,0,0,1,6.968-2.234c4.228-.958,4.261-1.015,6-4.03l.049-.083c1.215,1.18,2.477,2.372,3.7,3.524l0,0c2.738,2.583,5.568,5.255,8.164,8.072,4.753,5.161,6.578,11.616,5.426,19.186a9.212,9.212,0,0,0,.073,4.24,29.129,29.129,0,0,0,2.414-2.38,19.516,19.516,0,0,1,6.759-5.48,18.992,18.992,0,0,1,8.237-1.769,25.191,25.191,0,0,1,2.7.15c1.57.17,3.176.494,4.592.78.69.14,1.39.307,2.068.468a23.439,23.439,0,0,0,5.365.851,9.273,9.273,0,0,0,6-2.107c-1.153,4.442.713,7.777,2.518,11,.52.931,1.059,1.892,1.515,2.865a23.9,23.9,0,0,1,1.978,6.34,21,21,0,0,1,.062,6.144,23.9,23.9,0,0,1-1.659,5.956,32.711,32.711,0,0,1-3.186,5.774c-.526.774-1.077,1.568-1.564,2.269l-.031.044c-.291.419-.592.853-.886,1.28l.593.787c.372-.112.754-.217,1.122-.319l.016,0a21.72,21.72,0,0,0,2.429-.77,31.083,31.083,0,0,1,5.345-1.635,26.046,26.046,0,0,1,5.229-.542,25.519,25.519,0,0,1,7.189,1.051,32.142,32.142,0,0,1,7.111,3.125,23.345,23.345,0,0,0,7.054,2.26c1.018.21,1.979.408,2.866.653-.037,1.414-.087,2.854-.139,4.378v0c-.117,3.382-.237,6.88-.228,10.405a28.491,28.491,0,0,1-.735,6.6,22.505,22.505,0,0,1-2.217,5.744,22.223,22.223,0,0,1-3.719,4.9,27.63,27.63,0,0,1-5.241,4.053,17.505,17.505,0,0,0-1.617,1.161l0,0h0c-.409.314-.871.671-1.467,1.111.788.124,1.465.242,2.062.347l.01,0a28.433,28.433,0,0,0,2.882.411,32.609,32.609,0,0,1,5.8.819,24.919,24.919,0,0,1,5.251,1.883,22.176,22.176,0,0,1,4.633,3.073,24.219,24.219,0,0,1,3.952,4.393c.494.7.974,1.442,1.438,2.155,2.318,3.569,4.716,7.258,9.9,8.085-4.458,1.8-6.416,5.213-8.49,8.832l-.176.308a28.967,28.967,0,0,1-7.752,9.177,21.5,21.5,0,0,1-5.137,2.84,23.3,23.3,0,0,1-6.144,1.416,14.8,14.8,0,0,0-2.873.767c-.095.029-.164.148-.289.365-.08.139-.18.312-.325.528.488.168.965.342,1.428.509.965.351,1.875.682,2.819.937a20.057,20.057,0,0,1,4.388,1.745,16.22,16.22,0,0,1,3.53,2.609,16.544,16.544,0,0,1,2.7,3.479,21.042,21.042,0,0,1,1.891,4.354c.776,2.49,1.794,4.958,2.872,7.569.527,1.277,1.072,2.6,1.628,4.01-.756-.064-1.539-.123-2.23-.175-1.721-.129-3.5-.262-5.223-.492-1.186-.153-2.386-.372-3.546-.582a41.7,41.7,0,0,0-5.987-.791h-.041c-.743,0-1.472.642-2,1.763a7.246,7.246,0,0,0-.656,2.95,4.216,4.216,0,0,0,.791,2.675c3.062,3.714,4.611,8.078,5.02,14.153a7.4,7.4,0,0,0,1.483,3.254c.392.611.836,1.305,1.25,2.08a10.254,10.254,0,0,0-3.123-.493c-2.762,0-5.185,1.165-7.528,2.291-1.087.522-2.21,1.063-3.349,1.476a10.46,10.46,0,0,1-3.608.652,13.929,13.929,0,0,1-7.539-2.579c-2.5,7.415-2.826,13.59-1.027,19.433.266.867,1.807,1.531,2.274,1.713a24.382,24.382,0,0,1,5.208,2.663,11.709,11.709,0,0,1,3.3,3.384,11.431,11.431,0,0,1,1.572,4.443,23.158,23.158,0,0,1,.018,5.843c-.555,5.3-1.323,10.539-2.306,16.767-.39,2.471-.57,3.8-.079,4.744.479.916,1.821,2.023,4.184,3.064a16.615,16.615,0,0,1,9.527,10.522c2.077,7.153-.925,14.717-1.778,16.637a36.107,36.107,0,0,1-5.613,8.416,23.911,23.911,0,0,1-8.088,5.276,5.252,5.252,0,0,0-2.056,2.288,14.685,14.685,0,0,1-.851,1.279l.773.84,5.873-1.567c-.175.789-.337,1.5-.479,2.131l-.005.024c-.16.7-.31,1.369-.449,2a12.453,12.453,0,0,0,5.025,1.03,27.9,27.9,0,0,0,8.35-1.754,29.592,29.592,0,0,1,7.838-1.743l.5,1-20.2,10.933c.872.3,1.631.564,2.365.823,1.378.486,2.565.9,3.768,1.25,1.161.332,2.356.629,3.512.917a57.287,57.287,0,0,1,6.294,1.823,6.328,6.328,0,0,1,2.32,2.081c.385.466.783.946,1.241,1.412a92.312,92.312,0,0,1-18.33,6.2c-6.215,1.467-12.6,2.5-18.785,3.5h-.005c-3.09.5-6.286,1.015-9.413,1.578.031.352.052.736.067,1.207,1.38.1,2.782.223,4.139.339l.028,0c3.053.26,6.21.53,9.326.645a109.608,109.608,0,0,1,14.576,1.315,48.582,48.582,0,0,1,13.917,4.458,39.929,39.929,0,0,1,7.68,5.294,18.957,18.957,0,0,0-8.3-1.819,46.469,46.469,0,0,0-10.741,1.714c-1.753.422-3.566.859-5.354,1.179a81,81,0,0,1-10.853,1.4,6.013,6.013,0,0,0-2.629.553,3.725,3.725,0,0,0-1.618,2.113,11.239,11.239,0,0,1-1.819,2.822c-.41.524-.874,1.116-1.341,1.785l41.753,1.633c-3.963,1.838-20.1,3.381-46.678,4.464-24.079.981-55.437,1.521-88.3,1.521C-748.691,1366.9-779.536,1366.395-803.964,1365.472Zm65.621-74.023c1.261,18.947,3.166,47.579,3.581,58.09.154,3.708,1.724,12.35,12.964,12.515.153,0,.307,0,.456,0,4.833,0,8.206-1.151,10.312-3.52,1.78-2,2.676-4.861,2.821-9,.172-4.886,1.714-27.348,3.074-47.166v-.006c.94-13.688,1.751-25.51,1.875-28.142a36.452,36.452,0,0,1-9.152,4.517,29.93,29.93,0,0,1-9.123,1.43c-5.6,0-11.432-1.528-17.838-4.673C-739.372,1276-738.941,1282.477-738.344,1291.449Zm126.745-59.791c-.815.3-1.4.521-1.96.787-8.187,3.892-16.495,7.871-24.529,11.721-16.768,8.034-34.106,16.339-51.264,24.279-6.414,2.967-8.983,6.7-9.48,13.767-.821,11.69-2.432,32.454-3.727,49.139l0,.038c-1.089,14.031-1.949,25.114-2.054,27.073,2.891-1.281,20.143-9.454,38.407-18.107,13.265-6.285,26.981-12.784,35.524-16.8,6.084-2.86,9.853-7.109,11.52-12.987a103.11,103.11,0,0,0,2.327-10.413,4.429,4.429,0,0,0-.874-2.953,20.528,20.528,0,0,1-3.1-6.045,14.7,14.7,0,0,1-.437-6.755,32.011,32.011,0,0,1,1.766-6.738,18.394,18.394,0,0,1,3.727-5.928,5.522,5.522,0,0,0,1.44-2.847c1.045-7.66,2.03-15.432,2.926-23.1.376-3.2.688-6.453,1.018-9.893.15-1.565.3-3.181.475-4.887C-610.575,1231.277-611.119,1231.479-611.6,1231.658Zm-222.079,3.392,0,.019c.189,1.1.326,1.9.5,2.7.556,2.592,1.1,5.206,1.636,7.733v.007c1.4,6.64,2.839,13.507,4.449,20.26a58.637,58.637,0,0,0,4,11.093,33.3,33.3,0,0,1,3.13,9.625,16.692,16.692,0,0,1-1.53,9.835c-1.224,2.512-2.092,4.651-1.24,7.387a11.525,11.525,0,0,1,.371,2.013,14.994,14.994,0,0,0,.256,1.594c1.642,6.967,4.185,13.884,11.607,17.293,23.284,10.687,46.914,21.453,70.233,32a4.073,4.073,0,0,0,1.48.351,1.064,1.064,0,0,0,.627-.158c.414-.3.535-1.261.44-2.053-.549-4.187-5.084-52.767-6.433-73.293-.427-6.471-2.959-10.123-8.74-12.607-15.284-6.56-30.726-13.462-45.659-20.135l-.023-.01c-5.485-2.452-11.156-4.986-16.738-7.467-3.137-1.4-6.251-2.788-9.548-4.26l-.588-.263-8.611-3.844C-833.907,1233.72-833.785,1234.426-833.678,1235.049Zm35.625,102.88c-6.726,0-12.961,3.095-18.172,6.122-1.816,1.051-4.7,3.382-3.586,7.193,1.138,3.893,4.536,4.792,7.186,4.86,4.783.124,9.729.252,14.61.252,1.379,0,2.727-.011,4-.031,8.115-.13,16.352-.354,24.319-.572,3.271-.09,6.979-.191,10.554-.281l.167-.893c-2.735-1.306-5.555-2.567-8.282-3.787l0,0a162.384,162.384,0,0,1-18.247-9.1,23.628,23.628,0,0,0-12.546-3.763h0Zm152.811.322a16.266,16.266,0,0,0-8.429,1.974,114.118,114.118,0,0,1-12.76,6.406l-.008,0c-1.789.807-3.639,1.641-5.433,2.5l-12.453,6.007c.034.161.071.322.107.477v.005c.037.161.079.344.119.531h22.913c5.339,0,10.766.017,16.016.034h.008c4.658.015,9.475.03,14.255.033,3.294,0,5.47-1.433,6.467-4.26,1.1-3.131-.56-5.379-2.207-7.24-1.465-1.65-4.271-3.293-7.7-4.508a33.542,33.542,0,0,0-10.9-1.959h0Zm-190.186-74.5a8.975,8.975,0,0,0-4.273,1.871l-.144.125c-4.935,4.341-5.971,10.011-3.167,17.333a27.878,27.878,0,0,0,4.122,7.823,11.3,11.3,0,0,0,7.542,3.937c2.568.266,5.951-1.353,6.773-2.777s-4.123-1.6-4.165-2.608,4.3-2.993,3.744-4.88-4.953-2.821-5.006-3.365,2.828-3.2,2.692-4.344c-.178-1.5-1.775-2.049-3.39-3.084-1.391-.892-2.829-1.813-3.439-3.122.086-.054.185-.113.29-.177.289-.175.791-.532,1.113-.758a3.946,3.946,0,0,0,1.6-2.65,2.734,2.734,0,0,0-.756-2.481,3.49,3.49,0,0,0-2.6-.923A5.508,5.508,0,0,0-835.428,1263.75Zm225.782,1.388c-.529,2.066,2.356,3.534,1.683,6.142s-6.73,4.2-6.688,6.371,3.491,2.253,2.818,4.441-4.565,1.142-4.543,3.155,3.07,2.776,3.533,3.87-3.828.968-2.524,2.861a4.806,4.806,0,0,0,3.786,2.4,7.33,7.33,0,0,0,3.276-.451c8.388-3.429,14.039-14.429,11.408-22.963a10.164,10.164,0,0,0-6.27-7.171,7.728,7.728,0,0,0-3.17-.76C-608.043,1263.031-609.306,1263.81-609.646,1265.138Zm-217.216-42.205c-2.525,0-4.6,1.3-6.53,4.086h.021c.275.158.547.323.809.483a17,17,0,0,0,1.738.964c3.923,1.776,7.874,3.554,11.7,5.274l.009,0c6.613,2.977,13.451,6.055,20.155,9.122l9.057,4.147.623.285.029.014c17.459,7.991,35.512,16.255,53.183,24.521a34.509,34.509,0,0,0,14.826,3.517,32.8,32.8,0,0,0,4.554-.324c4.041-.575,7.318-2.369,10.787-4.269.92-.5,1.872-1.025,2.833-1.518,7.255-3.711,14.794-7.172,22.085-10.518,3.1-1.424,6.312-2.9,9.468-4.375,13.826-6.483,28.022-13.151,42.194-19.82,4.085-1.929,8.216-3.97,12.211-5.944l.044-.022c1.753-.866,3.566-1.762,5.358-2.64-2.51-3.008-4.756-4.409-7.068-4.409a6.975,6.975,0,0,0-3.1.789l-4.028,1.962c-5.151,2.51-10.478,5.107-15.746,7.631-5.7,2.731-11.452,5.469-17.016,8.119-11.758,5.6-23.917,11.385-35.81,17.215-1.617.791-3.287,1.531-4.9,2.248-4.784,2.122-9.732,4.317-13.919,8.085a13.154,13.154,0,0,1-8.839,3.279,14.106,14.106,0,0,1-10.721-4.853,9.456,9.456,0,0,0-3.247-2.22c-8.851-4.076-17.806-8.174-26.465-12.137l-.121-.055c-8.553-3.914-17.4-7.962-26.081-11.961-5.548-2.548-11.172-5.173-16.612-7.713l-.008,0-.026-.013c-5.434-2.536-11.053-5.159-16.594-7.7a11.844,11.844,0,0,0-4.849-1.246h0Zm74.25,12.213a2.738,2.738,0,0,0-1.927,1.333c-1.43,2.7-2.744,5.392-4.136,8.243l0,.01c-.538,1.1-1.095,2.245-1.66,3.388,1.661.721,3.44,1.475,5.011,2.14,3.959,1.677,8.053,3.412,12.043,5.321,1.191.571,2.423,1.108,3.615,1.627l.011.005c3.745,1.632,7.618,3.319,10.807,6.3a9.1,9.1,0,0,0,6.459,2.666,9.124,9.124,0,0,0,2.978-.5,9.114,9.114,0,0,0,2.729-1.5,59.155,59.155,0,0,1,9.627-6.36c4.678-2.32,9.351-4.389,14.3-6.579,2.078-.92,4.226-1.87,6.368-2.84-.414-.8-.822-1.568-1.216-2.313l-.01-.019c-.789-1.491-1.535-2.9-2.234-4.335-.644-1.321-1.246-2.709-1.881-4.177l0-.007c-.407-.939-.827-1.911-1.289-2.936-.473.185-.928.334-1.367.479a8.169,8.169,0,0,0-2.426,1.081,5.445,5.445,0,0,0-1.124,1.4,4.291,4.291,0,0,1-1.417,1.589,60.272,60.272,0,0,1-12.213,4.658,49.277,49.277,0,0,1-12.2,1.567,48.042,48.042,0,0,1-12.439-1.66,56.88,56.88,0,0,1-12.4-5.026,5.941,5.941,0,0,1-1.507-1.382c-.25-.286-.507-.581-.779-.838-.138-.129-.276-.276-.422-.433-.416-.444-.847-.9-1.249-.9Zm77.818-2.03a48.227,48.227,0,0,0-8.129.944c-1.361.237-2.767.481-4.149.659.278.974.54,1.943.793,2.879l0,.008c.624,2.306,1.211,4.483,2,6.594a3.685,3.685,0,0,0,2.47,1.741.493.493,0,0,0,.2-.035c4.737-2.057,9.347-4.235,14.228-6.541l0,0c1.233-.583,2.63-1.243,4.021-1.9a16.105,16.105,0,0,0-11.434-4.35h0Zm-109.178,4.337,4,1.718.32.137.007,0c4.714,2.024,9.166,3.937,13.727,5.869a3.064,3.064,0,0,0,1.177.279c.923,0,1.549-.646,1.97-2.033.616-2.089,1.342-4.175,2.109-6.384.214-.615.457-1.313.691-2a26.18,26.18,0,0,0-10.962-2.549A18.727,18.727,0,0,0-783.972,1237.452Zm-30.266-60.74c.145.733.284,1.485.418,2.213v.006c.272,1.477.553,3,.915,4.488.318,1.263.627,2.552.924,3.8l0,.014c1.5,6.279,3.048,12.77,6.639,18.467,6.695,10.631,16.907,17.237,32.14,20.787a244.311,244.311,0,0,0,25.628,4.589,212.526,212.526,0,0,0,25.8,1.609,194.61,194.61,0,0,0,28.307-2.057c1.778-.262,3.589-.509,5.342-.749,9.9-1.352,20.136-2.749,29.459-7.438,7.888-3.987,16.618-9.017,20.386-18.293a175.25,175.25,0,0,0,6.229-19.73c.8-2.93,1.625-5.957,2.512-8.937h-.069c-.964-.016-1.8-.029-2.542-.029-2.594,0-3.987.155-4.888,1.037-.868.849-1.249,2.289-1.961,5.206a35.138,35.138,0,0,1-5.33,12.3,25.732,25.732,0,0,1-4.43,4.8,26.826,26.826,0,0,1-5.86,3.7,45.275,45.275,0,0,1-19.4,4.338,51.085,51.085,0,0,1-9.929-1,28.435,28.435,0,0,1-12.1-5.22,24.53,24.53,0,0,1-7.833-10.68c-.774-1.972-1.4-4.041-2-6.042-.562-1.867-1.142-3.794-1.842-5.638a6.91,6.91,0,0,0-1.159-1.936,3.264,3.264,0,0,0-1.654-1.171,76.271,76.271,0,0,0-14.989-1.492,76.318,76.318,0,0,0-10.524.732c-2.987.405-4.243,1.72-4.634,4.846a36.32,36.32,0,0,1-2.908,10.527,28.486,28.486,0,0,1-5.624,8.229,27.442,27.442,0,0,1-8.1,5.644,33.309,33.309,0,0,1-10.33,2.772,38.31,38.31,0,0,1-4.171.213,96.388,96.388,0,0,1-11.514-.935l-.2-.025a18.889,18.889,0,0,1-8.16-3.067,40.834,40.834,0,0,1-6.72-5.747,25.564,25.564,0,0,1-4.724-6.911,73.968,73.968,0,0,1-3.034-7.707c-.283-.805-.574-1.637-.874-2.463a13.229,13.229,0,0,0-1.316-3.014,1.994,1.994,0,0,0-1.8-.89h0A18.176,18.176,0,0,0-814.238,1176.712Zm187.958,37.129c-.775,0-1.732.755-2.7,2.127a20.084,20.084,0,0,0-2.576,5.6l11.207-5.333q-.284-1.269-.55-2.45l0-.011c-.469-2.089-.913-4.061-1.448-6.538l-3.567,6.666A1.062,1.062,0,0,0-626.28,1213.841Zm-187.592-3.308c.185.33.375.672.581.992a2.9,2.9,0,0,0,1.574.889,8.206,8.206,0,0,1,.846.318,7.045,7.045,0,0,1,.3-.757c.244-.551.495-1.12.318-1.456-.292-.555-.577-1.136-.852-1.7l0-.009c-1.718-3.5-3.495-7.113-8.238-7.8a23.942,23.942,0,0,1-3.226-1.066l.583,1.364.006.015c1.025,2.4,1.91,4.473,2.831,6.534a1.136,1.136,0,0,0,.737.5.169.169,0,0,0,.063-.011,4.282,4.282,0,0,1,1.555-.347C-815.285,1208.005-814.6,1209.233-813.873,1210.533Zm112.315-44.195c-2.4,9.351-.387,18.591,5.82,26.721,5.137,6.729,12,10,20.993,10a49.164,49.164,0,0,0,10.46-1.24c10.448-2.285,16.953-9.582,19.333-21.687a41.491,41.491,0,0,0,.563-4.621v-.017a38.812,38.812,0,0,0-.11-4.422c-.3-11.3-10.313-19.5-22.088-19.824a26.424,26.424,0,0,0-4.426.377c9.055,4.147,12.226,6.606,13.612,14.924s-6.653,22.663-19.409,22.688-18.355-16.4-17.376-23.2,8.793-13.184,8.682-13.184C-692.328,1152.854-699.681,1159.03-701.558,1166.338Zm-99.2-2.76c-2.454,11.786-.05,22.524,6.953,31.054,4.321,5.266,11.879,8.41,20.218,8.41a28.789,28.789,0,0,0,13.269-3.077,24.434,24.434,0,0,0,9.589-8.791,37.449,37.449,0,0,0,4.665-12.156,21.8,21.8,0,0,0-4.162-18.443c-4.483-5.57-11.563-8.637-19.936-8.637-.684,0-1.385.02-2.083.06h.02c.6.244,1.057.437,1.423.592h0c.559.237.928.393,1.3.514,2.14.71,12.766,7.989,11.6,17.333s-10.3,19.2-20.426,18.8-17.224-5.822-17.944-18.8,11.12-16.973,11.12-16.973C-793.138,1153.64-799.556,1157.8-800.759,1163.578Zm-29.227,2.98c-3.189.087-5.174,2.687-5.447,7.134a18.511,18.511,0,0,0,1.409,7.844,29.336,29.336,0,0,0,4.477,7.587c4.051,5.015,9.22,8.4,14.181,9.276-.066-.366-.13-.723-.191-1.069v-.006c-.154-.87-.3-1.691-.475-2.505-.465-2.151-.951-4.332-1.42-6.44l0-.008c-1.064-4.781-2.164-9.724-3.1-14.645a8.741,8.741,0,0,0-3.288-4.93,9.858,9.858,0,0,0-5.938-2.24C-829.852,1166.555-829.919,1166.557-829.985,1166.558Zm204.22,7.693c-.253,2.265-.616,5.245-1.187,8.207-.69,3.37-1.454,6.675-2.262,10.175v0l-.006.025c-.344,1.489-.7,3.029-1.051,4.581a7.764,7.764,0,0,0,1.155.086c.1,0,.2,0,.3-.006a11.684,11.684,0,0,0,2.246-.553c8.646-3.526,14.457-10.406,17.273-20.447a6.666,6.666,0,0,0,.086-3.193,8.525,8.525,0,0,0-1.272-2.98,8.987,8.987,0,0,0-6.073-4.007,7.311,7.311,0,0,0-.892-.055h0C-621.61,1166.09-625.265,1169.675-625.765,1174.252Zm-161.148-13.379a3.705,3.705,0,0,0-1.018,2.666c.074,1.808,1.632,3.647,3.146,3.713h.059a2.44,2.44,0,0,0,1.654-.874,5.117,5.117,0,0,0,1.441-3.4,2.784,2.784,0,0,0-1.178-2.117,4.157,4.157,0,0,0-2.269-.816l-.085,0A2.465,2.465,0,0,0-786.913,1160.873Zm103.968-1.335a4.5,4.5,0,0,0-3.193,4,3.023,3.023,0,0,0,2.826,2.984,2.148,2.148,0,0,0,.368-.031c1.511-.261,2.993-2.253,2.993-4.022a2.884,2.884,0,0,0-2.625-2.963A2.179,2.179,0,0,0-682.945,1159.538Zm53.01,92.032c0-2.89,2.034-5.233,4.542-5.233s4.542,2.343,4.542,5.233-2.034,5.233-4.542,5.233S-629.935,1254.46-629.935,1251.57Zm-108.3-41.661c-.64-1.174.213-2.455,1.28-1.708,8.644,5.976,18.247,6.083,26.891,0,1.067-.747,1.921.533,1.28,1.708a17.24,17.24,0,0,1-14.726,8.216A17.479,17.479,0,0,1-738.234,1209.908Zm-134.331-75.2c-.953-1.627-1.839-3.333-2.666-4.993-1.767-3.667-4.22-6.547-7.414-7.413,3.334-3.427,6.86-6.567,9.767-10.206,5.333-6.667,11.873-10.54,20.527-10.527a6.494,6.494,0,0,0,1.513-.366c.387-.467.78-.927,1.167-1.387a24.923,24.923,0,0,1-3.673-2c-7.267-5.72-10.414-13.273-9.8-22.46.293-4.386,1.394-8.86-1.04-12.3,4.433-1.88,8.9-3.707,13.333-5.647,8.78-3.866,17.067-2.12,25.513,2.1-19.493,25.3-29.873,53.447-27.226,85.92C-861.285,1144.792-868.205,1142.132-872.565,1134.705Zm99.884-2.995c10.958-.539,19.7,2.884,19,5.922-.425,2.065-4.124,1.143-9.269.223a45.878,45.878,0,0,0-12.851-.857,79.643,79.643,0,0,0-21.333,5.241C-792.691,1136.366-781.545,1132.146-772.681,1131.71Zm76.55,6.655-.574-1.826c2.627-1.594,5.074-3.753,7.913-4.667,11.873-3.9,22.667-.993,32.607,6a16.266,16.266,0,0,1,1.613,1.76C-668.879,1135.252-682.5,1136.759-696.132,1138.365Zm-81.373-33.44-19.733,6.813C-795.005,1105.079-783.5,1100.659-777.5,1104.925Zm97.839-.087c5.273-4.3,15.947-1.893,22.087,5.113Z"
    transform="translate(981.935 -929.004)" fill="#166496" />

</svg>