<svg xmlns="http://www.w3.org/2000/svg" xmlns:xlink="http://www.w3.org/1999/xlink" width="512" height="512" viewBox="0 0 512 512"><defs><clipPath id="b"><rect width="512" height="512"/></clipPath></defs><g id="a" clip-path="url(#b)"><rect width="512" height="512" fill="#ffd60a"/><g transform="translate(-14.015 -18.094)"><path d="M-3524.548-1288.686l-98.376-48.149a4.669,4.669,0,0,1-2.3-3.064l-20.135-109.537c-.328-2.079,1.2-3.283,3.064-2.408l118.511,51.651a10.828,10.828,0,0,0,6.456,0l111.507-51.541c1.86-.876,3.283.438,2.955,2.408l-19.04,109.538a5.332,5.332,0,0,1-2.188,3.064l-92.467,48.039h-.109a9.678,9.678,0,0,1-4.056.78A8.293,8.293,0,0,1-3524.548-1288.686Zm-14.444-143.133h-.547a39.663,39.663,0,0,0-25.168,9.083l-2.955-1.313c.128-.513.257-1.027.407-1.54a12.846,12.846,0,0,0-1.72,1.54l-43.662-19.041a19.461,19.461,0,0,1,1.86-2.626c.328-.438.875-.875,1.2-1.314-1.86.766-3.83,1.751-5.909,2.736l-31.3-13.678a2.625,2.625,0,0,0-1.532-.219,36.226,36.226,0,0,0-.219-4.705c-.875-8.316,1.313-17.4,13.9-24.512-6.675.109-18.274,4.705-27.685-4.378s-12.147-9.849-16.743-9.738c5.252-2.408,7.551-4.706,9.739-12.8s7.551-15.758,21.776-17.838c-6.237-2.3-18.712-2.3-24.293-14.116-5.471-11.818-7.66-13.569-12.147-15.1,5.8-.328,8.755-1.641,13.679-8.426s12.693-12.038,26.81-8.755c-5.033-4.377-16.633-8.864-17.509-22-.875-13.021-2.3-15.429-5.8-18.493,5.471,1.86,8.755,1.641,15.758-2.846s16.2-6.565,28.123,1.532c-3.064-5.909-12.366-14.334-8.427-26.809s3.5-15.211,1.2-19.369c4.487,3.72,7.551,4.705,15.757,3.064s17.509-.328,25.717,11.6c-.767-6.566-6.347-17.838,1.859-28.014s8.755-12.912,8.1-17.618c2.845,5.033,5.361,7.113,13.569,8.535s16.415,6.019,19.807,20.026c1.641-6.456.547-18.931,11.818-25.5s12.8-8.974,13.9-13.46c.875,5.69,2.407,8.535,9.629,12.8,7.114,4.268,13.132,11.49,11.162,25.826,3.94-5.362,7.332-17.4,20.244-19.479s15.21-3.72,17.837-7.551c-1.313,5.691-.766,8.864,4.268,15.43,5.143,6.565,8.1,15.539,1.094,28.123,5.581-3.611,13.131-13.57,25.934-10.834s15.539,2.079,19.369-.547c-3.283,4.815-3.939,7.989-1.532,15.977s4.814,16.852-6.238,26.044c6.566-2.188,15.976-6.238,25.169-.219,10.942,7.223,13.678,7.551,18.274,6.456-4.815,3.283-6.565,6.019-7.222,14.335s-5.034,17.071-18.713,21.776c6.566,1.095,19.479-1.423,27.03,9.192s10.068,11.928,14.664,12.584c-5.582,1.313-8.316,3.283-11.928,10.724s-10.943,14.116-25.387,13.46c5.69,3.392,18.6,5.691,21.885,18.384s5.034,14.773,9.083,17.071c-5.691-.766-8.973,0-14.992,5.69s-15.32,9.192-28.451,3.5c4.159,5.252,15.32,12.037,13.788,25.059s-.656,15.648,2.3,19.26a14.783,14.783,0,0,0-7.66-2.3l1.532-8.645c.327-2.188-1.095-3.392-3.064-2.517l-26.7,12.365a37.24,37.24,0,0,1-7.988-6.019c.656,2.189,2.079,5.034,3.392,8.1l-41.473,19.15c-.328-.656-.656-1.422-1.095-2.188v2.627l-3.611,1.641a45.232,45.232,0,0,0-24.949-9.082,17.451,17.451,0,0,1-17.508,16.961A17.471,17.471,0,0,1-3538.992-1431.819Zm-78.351-60.952c-5.581,8.316-12.038,25.607,1.532,37.315a52.884,52.884,0,0,0,7.66,5.472c21.12,12.475,58,19.04,84.916,18.384,5.69-.11,11.819-.438,18.275-1.095,28.342-2.517,60.952-9.957,72.66-27.357v.328c9.3-13.788,7.332-24.184,3.392-29.764,7.66-12.8,10.5-27.358,12.147-43.006a19.8,19.8,0,0,1-4.706,1.095c-6.365.863-10.177,1.673-12.734,2.718,4.554,5.865,5.137,14.519,2.667,27.265-2.3,12.475-6.346,20.135-12.912,24.84a39.925,39.925,0,0,1-36.44,4.6c-8.207-3.064-15.648-8.1-18.712-12.475-2.954-4.268-5.252-13.021-5.252-19.588,0-4.486-.109-4.924-2.517-5.581-3.283-.875-25.168-.875-28.451,0-2.188.656-2.517-1.094-2.517,4.268s-1.751,14.226-3.72,17.947c-3.721,7.332-15.43,14.882-26.919,17.289-14.445,2.955-30.422-3.173-37.206-14.444-6.019-10.177-8.973-33.595-5.143-41.145a14.156,14.156,0,0,1,1.485-2.341c-3.518-1.771-8.509-2.081-14.179-2.912-1.313-.218-2.517-.328-3.611-.546C-3625.987-1517.611-3623.909-1504.479-3617.343-1492.771ZM-3495-1529.1c-4.377,3.61-6.018,8.863-6.565,20.134-.547,12.584,1.094,18.822,6.346,24.622,7.114,7.769,22.214,13.46,32.063,12.146,10.834-1.422,20.9-7.66,24.84-15.429,4.815-9.52,7.114-30.312,4.05-36.768a13.025,13.025,0,0,0-2.13-3.144,12.114,12.114,0,0,0-3.123,3.144,18.529,18.529,0,0,0,.722-5.281c-3.563-2.606-8.864-4.538-16.261-5.99h.109a62.618,62.618,0,0,0-9.456-1.105,16.573,16.573,0,0,0,.263,2.418,25.584,25.584,0,0,0-1.71-2.463c-.45-.009-.9-.014-1.346-.014C-3478.448-1536.83-3489.226-1533.994-3495-1529.1Zm-114.79,23.308c2.188,12.8,4.706,18.821,10.287,24.4,11.49,11.49,30.2,12.147,45.96,1.751,6.347-4.159,9.3-8.207,11.052-14.992,2.736-10.287,1.2-26.153-3.064-32.172-2.3-3.173-10.5-7.223-18.384-8.864a59.966,59.966,0,0,0-10.141-1.217c-4.688,1.564-6.228,3.172-7.915,5.813.487-2.533.259-4.069-.617-5.553a59.458,59.458,0,0,0-14.922,3.365c-4.07,1.512-7.125,3.45-9.255,6.013a12.918,12.918,0,0,1,.72,2.632,8.323,8.323,0,0,0-1.385-1.77C-3610.763-1521.754-3611.387-1515.225-3609.793-1505.792Zm102.753-6.456c1.751.546,2.079.218,2.626-2.955,1.095-6.456,3.174-11.928,5.582-14.554,5.27-5.7,17.563-9.426,30.153-9.717-2.125-1.429-4.929-2.276-9.362-2.867-8.207-1.094-16.634-5.362-20.572-19.26-1.423,6.456,1.422,21.558-9.521,28.561-11.052,7-17.18,7.222-18.056,11.709-1.094-5.691-1.094-8.645-8.426-12.694-7.332-3.939-11.819-11.161-10.5-25.5-3.611,5.581-6.566,17.727-19.37,20.244q-1.33.273-2.512.533l.1.014c17.18,2.3,25.5,8.755,27.138,20.791.767,6.019.985,6.128,7.332,5.033a62.8,62.8,0,0,1,9.528-.542C-3516.569-1513.448-3509.485-1513-3507.039-1512.248Zm-95.422-28.233c-3.9,5.078-5.01,7.885-5.046,9.963,4.677-4.153,12.249-7.19,21.132-8.321l-.219.109c.745-.1,1.451-.187,2.124-.268-1.117-1.232-2.563-2.7-4.312-4.767l-5.252-13.241S-3595.567-1549.345-3602.461-1540.482Zm143.789,1.532c8.291,1.117,14.587,2.876,19.13,5.62a26.784,26.784,0,0,0-3.919-6.6c-4.925-6.675-13.131-6.893-5.91-19.369a27.905,27.905,0,0,0-7.332,7.113c-4.726,6.39-6.739,9.946-7.418,12.762C-3462.287-1539.347-3460.463-1539.189-3458.672-1538.949Zm-190.843,86.667.656,3.611a10.033,10.033,0,0,0-4.268,1.2A15.865,15.865,0,0,0-3649.515-1452.282Zm110.194,1.314-.109.109c.547-1.532,2.407,1.86,5.909,1.86s7.879-2.626,11.71-2.736a22.407,22.407,0,0,1,5.963.99,19.977,19.977,0,0,0,5.745.98c3.173-.219,4.924-3.283,5.69-2.079.657,1.313-3.064,3.392-5.909,3.392s-7.441-3.173-11.38-3.064-8.864,3.72-12.037,3.72S-3539.867-1449.437-3539.321-1450.969Zm-34.909-4.815a1.642,1.642,0,0,1,1.643-1.641,1.641,1.641,0,0,1,1.641,1.641,1.641,1.641,0,0,1-1.641,1.641A1.642,1.642,0,0,1-3574.23-1455.784Zm96.3.11a1.094,1.094,0,0,1,1.094-1.1,1.1,1.1,0,0,1,1.095,1.1,1.094,1.094,0,0,1-1.095,1.093A1.093,1.093,0,0,1-3477.931-1455.674Zm-102.754-5.8a1.641,1.641,0,0,1,1.642-1.641,1.641,1.641,0,0,1,1.641,1.641,1.641,1.641,0,0,1-1.641,1.641A1.642,1.642,0,0,1-3580.685-1461.474Zm108.552-.219a1.094,1.094,0,0,1,1.095-1.094,1.094,1.094,0,0,1,1.095,1.094,1.094,1.094,0,0,1-1.095,1.095A1.094,1.094,0,0,1-3472.133-1461.693Zm-10.176-.766a1.641,1.641,0,0,1,1.641-1.641,1.642,1.642,0,0,1,1.641,1.641,1.642,1.642,0,0,1-1.641,1.642A1.641,1.641,0,0,1-3482.308-1462.459Zm-87.762-.656a1.1,1.1,0,0,1,1.095-1.095,1.1,1.1,0,0,1,1.094,1.095,1.094,1.094,0,0,1-1.094,1.094A1.094,1.094,0,0,1-3570.07-1463.115Zm81.566-34.81c0-11.482,6.613-20.791,14.772-20.791s14.773,9.308,14.773,20.791-6.613,20.792-14.773,20.792S-3488.5-1486.442-3488.5-1497.925Zm-95.2,0c0-11.482,6.614-20.791,14.773-20.791s14.772,9.308,14.772,20.791-6.615,20.792-14.772,20.792S-3583.706-1486.442-3583.706-1497.925Z" transform="translate(3791.335 1772)" fill="#00598a"/></g></g></svg>