<svg xmlns="http://www.w3.org/2000/svg" xmlns:xlink="http://www.w3.org/1999/xlink" viewBox="0 0 72 72">
 
      <path id="super" d="M58.451,70.871a223.851,223.851,0,0,1-44.9,0A14.948,14.948,0,0,1,1.129,58.451a223.851,223.851,0,0,1,0-44.9A14.948,14.948,0,0,1,13.549,1.129a223.852,223.852,0,0,1,44.9,0A14.948,14.948,0,0,1,70.871,13.549a223.852,223.852,0,0,1,0,44.9A14.948,14.948,0,0,1,58.451,70.871Z" transform="translate(0 0)" fill="url(#radial-gradient)"/>
      <path id="Intersection_1" data-name="Intersection 1" d="M-2396.2-1364.055c-.214-2.45-.414-4.891-.52-6.493a2.655,2.655,0,0,0-1.785-2.574c-3.121-1.34-6.274-2.75-9.324-4.112l0,0c-1.12-.5-2.279-1.018-3.418-1.525l-1.949-.87-.121-.054-1.759-.785c.031.174.056.318.078.445v0c.04.225.068.387.1.552.113.529.226,1.063.334,1.579h0c.285,1.356.58,2.758.909,4.137a12.052,12.052,0,0,0,.816,2.265,6.774,6.774,0,0,1,.64,1.965,3.406,3.406,0,0,1-.313,2.009,1.914,1.914,0,0,0-.253,1.508,2.358,2.358,0,0,1,.075.411,3.152,3.152,0,0,0,.052.325q.045.191.095.381-.7-.061-1.4-.127c-.05-.128-.1-.252-.142-.372v0a6.271,6.271,0,0,0-.373-.876,1.124,1.124,0,0,0-.554-.436,4.713,4.713,0,0,1-2.494-2.292,9.82,9.82,0,0,1-.558-1.245,4.111,4.111,0,0,1-.235-1.058,5.693,5.693,0,0,1,.428-2.338l-3.424-4.119.184-.189,4.018,3.492a7.467,7.467,0,0,1,.743-.465l.016-.008c.965-.471.965-.471.762-1.5l0-.017c-.263-1.332-.458-2.361-.632-3.335a3.023,3.023,0,0,1,.14-2.136,2.139,2.139,0,0,1,.664-.666,7.266,7.266,0,0,1,1.142-.6c.616-.271.786-.573.653-1.155-.181-.795-.363-1.579-.555-2.411l-.007-.03-.272-1.176c-.177.109-.329.209-.464.3h0a4.48,4.48,0,0,1-.7.405,3.467,3.467,0,0,1-1.445.313,3.5,3.5,0,0,1-1.7-.442,8.194,8.194,0,0,0-1.224-.49c-.18-.06-.366-.123-.545-.191.539-.3.527-.815.514-1.365a4.036,4.036,0,0,1,.022-.683,11.62,11.62,0,0,1,.386-1.56c.076-.256.155-.522.229-.8l-3.59-.725a1.757,1.757,0,0,0,.826-.818,3.712,3.712,0,0,0,.294-1.081,4.207,4.207,0,0,1,.336-1.146,3.15,3.15,0,0,1,.615-.885,3.407,3.407,0,0,1,.891-.635,5.028,5.028,0,0,1,1.166-.4,14.706,14.706,0,0,0,.789,2.951,14.746,14.746,0,0,0,1.381,2.724c.018-.1.033-.2.049-.29h0c.031-.2.06-.367.1-.537a3.63,3.63,0,0,1,.308-.906,2.217,2.217,0,0,1,.495-.653,1.971,1.971,0,0,1,.687-.4,2.764,2.764,0,0,1,.884-.133c.083,0,.169,0,.256.008.035,0,.069,0,.1,0a.547.547,0,0,0,.432-.15,1.118,1.118,0,0,0,.2-.4c.07-.2.139-.394.206-.587l0-.007c.247-.707.5-1.44.822-2.129a10.128,10.128,0,0,1,1.083-1.823,9.773,9.773,0,0,1,1.381-1.492,10.975,10.975,0,0,1,1.66-1.2,14.106,14.106,0,0,1,1.921-.935c1.939-.777,3.833-1.762,5.665-2.716l.018-.009.975-.507a9.533,9.533,0,0,0,1.454-1h0c.224-.175.454-.355.7-.529a4.782,4.782,0,0,1-.81,1.347,12.937,12.937,0,0,1-1.066,1.1l-.049.047a9.388,9.388,0,0,0,5.173-4.54c1.1-2.169,2.061-4.324,1.641-6.835h.22c.055.87.116,1.823.181,2.835a7.689,7.689,0,0,1-1.256,4.81,11.723,11.723,0,0,1-1.544,1.89,23.438,23.438,0,0,1-1.891,1.694,9.383,9.383,0,0,1-2.348,1.366c-.832.348-1.715.62-2.569.884l-.384.119c-1.553.483-3.212,1.058-5.068,1.758a8.822,8.822,0,0,0-3.537,2.979l-.012.014-.153.184a3.869,3.869,0,0,0-.558.875,4.219,4.219,0,0,0-.3.906,10.09,10.09,0,0,0-.158,1.871,13.481,13.481,0,0,1-.087,1.457h0l.521,0h0c.167,0,.325,0,.483,0,.377,0,.663-.009.929-.028.111-.008.272-.268.307-.449a3.327,3.327,0,0,1,.782-1.537,3.5,3.5,0,0,1,1.449-.913,15.288,15.288,0,0,1,4.946-1.023,8.736,8.736,0,0,1,1.581.142,6.762,6.762,0,0,1,2.948,1.194,4.526,4.526,0,0,1,1.042,1.123,5.339,5.339,0,0,1,.677,1.565.613.613,0,0,0,.434.345l.019,0a18.74,18.74,0,0,1,2.765-.2,25.356,25.356,0,0,1,3.744.3c.049-.172.092-.343.133-.509h0a7.634,7.634,0,0,1,.3-1.013c.769-1.905,2.482-2.468,4.22-2.791a10.926,10.926,0,0,1,1.983-.181,11.377,11.377,0,0,1,4.8.952,4.176,4.176,0,0,1,2.306,2.642c.071.374.384.482.726.482a1.268,1.268,0,0,0,.16-.011,7.9,7.9,0,0,1,.83-.067h0c.152-.007.31-.015.487-.027-.048-.367-.065-.752-.081-1.125h0a11.7,11.7,0,0,0-.1-1.206,3.055,3.055,0,0,0-.334-1.06,10.306,10.306,0,0,0-4.654-4.728c-.993-.424-2.035-.774-3.044-1.113l-.591-.2c-.388-.131-.787-.249-1.175-.364h0c-.574-.169-1.167-.344-1.731-.565a7.334,7.334,0,0,1-1.513-.9l-.1-.073c-.357-.253-.7-.539-1.03-.815l0,0c-.144-.121-.293-.246-.441-.366l-.116.119,1.452,1.362a2.491,2.491,0,0,1-1.181-.662,9.424,9.424,0,0,1-1.3-1.449,15.292,15.292,0,0,1-.959-1.464,14.416,14.416,0,0,1-.778-1.551,8.743,8.743,0,0,1-.489-1.46,3.318,3.318,0,0,1-.085-1.19c.036.062.077.123.118.184a1.272,1.272,0,0,1,.211.411,7.875,7.875,0,0,0,2.188,3.955l-.444-1.458.178-.072c.177.236.352.481.52.719a12.96,12.96,0,0,0,1.238,1.57,10.789,10.789,0,0,0,2.288,1.689l-.9-1.047-.717-.833.128-.157c.158.1.322.2.481.3h0a9.439,9.439,0,0,1,1,.676,17.066,17.066,0,0,0,2.868,1.876,24.139,24.139,0,0,0,3.146,1.356,9.041,9.041,0,0,1,1.721.822,8.706,8.706,0,0,1,1.446,1.12,9.67,9.67,0,0,1,1.193,1.391,11.843,11.843,0,0,1,.964,1.633c.588,1.2,1.03,2.178,1.393,3.09.118.3.272.427.514.427a1.274,1.274,0,0,0,.262-.033,4.446,4.446,0,0,1,.936-.11,2.425,2.425,0,0,1,1.335.356,2.786,2.786,0,0,1,.948,1.079,17.915,17.915,0,0,0,.887-3.6,17.884,17.884,0,0,0,.126-3.7,25.934,25.934,0,0,0-2.805-10.151,24.608,24.608,0,0,0-5.75-7.338,27.4,27.4,0,0,0-5.2-3.617,24.741,24.741,0,0,0-5.94-2.227,27.008,27.008,0,0,0-6.138-.728,26.384,26.384,0,0,0-14,4.18,26.219,26.219,0,0,0-5.511,4.711c-.08.09-.163.177-.244.261h0l-.124.13a5.727,5.727,0,0,1-1.51-2.908,4.663,4.663,0,0,1,.668-3.392,4.775,4.775,0,0,0,.522-1.476c.054-.227.109-.462.177-.68.155,0,.327.013.509.027.206.015.418.031.635.031a2.626,2.626,0,0,0,.726-.087,5.809,5.809,0,0,1,1.567-.232,4.294,4.294,0,0,1,1.741.36,5.1,5.1,0,0,1,1.554,1.1,4.424,4.424,0,0,0,.467.383.068.068,0,0,0,.041.009l.05,0c.033,0,.077-.006.137-.006-.017-.093-.032-.185-.047-.274v0c-.031-.2-.063-.382-.108-.566a3.914,3.914,0,0,1,1.563-4.315c1.361-1.007,1.361-1.007,1.681-1.737.206.092.412.187.612.28.42.2.855.4,1.293.556a6.637,6.637,0,0,1,1.808.933,4.587,4.587,0,0,1,1.348,1.635c.034-.169.063-.323.091-.472.056-.3.1-.553.173-.8a3.606,3.606,0,0,1,1.094-1.743,8.35,8.35,0,0,1,1.718-1.131l.069-.036a2.143,2.143,0,0,0,1.364-1.4,3.05,3.05,0,0,0,1.761,1.82l.247.139a4.146,4.146,0,0,1,1.516,1.444,4.984,4.984,0,0,1,.662,1.979c.1-.133.2-.27.3-.4a7.99,7.99,0,0,1,.651-.807,3.941,3.941,0,0,1,1.22-.851,6.876,6.876,0,0,1,1.423-.456c.863-.2.87-.208,1.226-.823l.011-.017c.247.241.506.485.755.72h0c.56.527,1.137,1.073,1.667,1.648a4.512,4.512,0,0,1,1.108,3.919,1.889,1.889,0,0,0,.014.866,5.849,5.849,0,0,0,.493-.486,3.99,3.99,0,0,1,1.38-1.12,3.884,3.884,0,0,1,1.682-.361,5.077,5.077,0,0,1,.552.031c.32.034.649.1.938.159.141.028.284.062.422.1a4.8,4.8,0,0,0,1.1.174,1.893,1.893,0,0,0,1.225-.43,2.863,2.863,0,0,0,.515,2.246c.105.191.216.387.309.585a4.869,4.869,0,0,1,.4,1.3,4.279,4.279,0,0,1,.012,1.255,4.856,4.856,0,0,1-.339,1.216,6.663,6.663,0,0,1-.65,1.179c-.108.158-.22.32-.32.464l-.006.009-.181.261.121.161c.076-.023.155-.044.229-.065l0,0a4.39,4.39,0,0,0,.5-.157,6.41,6.41,0,0,1,1.091-.334,5.3,5.3,0,0,1,1.068-.111,5.186,5.186,0,0,1,1.468.215,6.506,6.506,0,0,1,1.452.638,4.762,4.762,0,0,0,1.441.461c.208.043.4.084.585.133-.007.289-.018.583-.029.895h0c-.023.69-.048,1.4-.047,2.124a5.788,5.788,0,0,1-.149,1.348,4.6,4.6,0,0,1-.453,1.173,4.542,4.542,0,0,1-.76,1,5.662,5.662,0,0,1-1.07.828,3.445,3.445,0,0,0-.33.237h0c-.084.064-.177.137-.3.226.161.026.3.05.421.071h0c.229.04.408.071.588.084a6.6,6.6,0,0,1,1.185.167,5.034,5.034,0,0,1,1.072.384,4.514,4.514,0,0,1,.947.627,4.97,4.97,0,0,1,.806.9c.1.143.2.294.293.439a2.975,2.975,0,0,0,2.021,1.651,3.539,3.539,0,0,0-1.734,1.8l-.036.063a5.913,5.913,0,0,1-1.583,1.874,4.382,4.382,0,0,1-1.048.58,4.759,4.759,0,0,1-1.255.289,3.066,3.066,0,0,0-.587.157c-.02.006-.033.031-.058.075-.017.029-.037.064-.067.108.1.034.2.07.292.1.2.071.383.139.575.191a4.1,4.1,0,0,1,.9.356,3.351,3.351,0,0,1,.721.533,3.42,3.42,0,0,1,.551.71,4.3,4.3,0,0,1,.386.889c.158.509.366,1.013.587,1.546.107.261.219.53.332.819-.154-.013-.314-.025-.455-.036-.351-.026-.714-.054-1.067-.1-.242-.031-.487-.076-.724-.119a8.44,8.44,0,0,0-1.222-.161h-.008c-.152,0-.3.13-.408.36a1.467,1.467,0,0,0-.134.6.86.86,0,0,0,.161.546,4.771,4.771,0,0,1,1.025,2.89,1.511,1.511,0,0,0,.3.664c.08.125.171.266.255.425a2.1,2.1,0,0,0-.637-.1,3.55,3.55,0,0,0-1.537.468c-.222.106-.452.217-.684.3a2.154,2.154,0,0,1-.737.133,2.845,2.845,0,0,1-1.539-.526,6.258,6.258,0,0,0-.21,3.968c.054.176.369.312.464.349a4.981,4.981,0,0,1,1.063.544,2.394,2.394,0,0,1,.675.69,2.342,2.342,0,0,1,.321.908,4.719,4.719,0,0,1,0,1.192c-.113,1.084-.27,2.152-.471,3.425-.08.5-.117.777-.016.968a1.755,1.755,0,0,0,.854.625,3.394,3.394,0,0,1,1.946,2.149,5.369,5.369,0,0,1-.364,3.4,7.33,7.33,0,0,1-1.146,1.719,4.9,4.9,0,0,1-1.651,1.077,1.077,1.077,0,0,0-.42.467,2.929,2.929,0,0,1-.173.261l.157.172,1.2-.32-.1.436v0a14.972,14.972,0,0,1-2.246.536l-.514.051c.135-.535.249-1.078.341-1.62a.9.9,0,0,0-.178-.6,4.189,4.189,0,0,1-.633-1.235,3,3,0,0,1-.089-1.38,6.5,6.5,0,0,1,.361-1.375,3.753,3.753,0,0,1,.76-1.211,1.122,1.122,0,0,0,.294-.581c.213-1.564.415-3.151.6-4.717.076-.654.14-1.319.208-2.021.031-.32.062-.65.1-1-.14.054-.25.1-.349.132-.166.061-.285.106-.4.16-1.672.795-3.369,1.607-5.008,2.394-3.425,1.641-6.964,3.336-10.469,4.957a2.917,2.917,0,0,0-1.935,2.812c-.11,1.56-.289,3.911-.473,6.3l-.966.02c.05-.737.1-1.481.151-2.208h0c.192-2.8.357-5.209.383-5.746a7.462,7.462,0,0,1-1.868.922,6.122,6.122,0,0,1-1.863.292,8.237,8.237,0,0,1-3.642-.954c0,.1.087,1.425.21,3.257.089,1.331.193,2.9.295,4.464Zm-19.157-10.109a1.833,1.833,0,0,0-.873.382l-.03.026a2.9,2.9,0,0,0-.646,3.539,5.713,5.713,0,0,0,.841,1.6,2.308,2.308,0,0,0,1.54.8,1.711,1.711,0,0,0,1.383-.566c.168-.291-.842-.327-.851-.533s.877-.611.765-1-1.012-.576-1.022-.688.578-.653.55-.886c-.037-.306-.363-.418-.692-.63a1.792,1.792,0,0,1-.7-.638l.06-.036c.059-.035.161-.108.227-.155a.806.806,0,0,0,.327-.541.556.556,0,0,0-.155-.507.711.711,0,0,0-.531-.188A1.1,1.1,0,0,0-2415.358-1374.164Zm46.1.284c-.108.422.481.722.344,1.254s-1.374.859-1.366,1.3.713.46.575.907-.932.233-.928.644.627.566.722.79-.781.2-.515.584a.981.981,0,0,0,.773.49,1.494,1.494,0,0,0,.669-.093,4.15,4.15,0,0,0,2.329-4.688,2.076,2.076,0,0,0-1.28-1.465,1.6,1.6,0,0,0-.647-.155A.633.633,0,0,0-2369.254-1373.881Zm-45.689-7.784h0c.056.032.112.066.166.1a3.34,3.34,0,0,0,.354.2c.8.363,1.607.726,2.388,1.077h0c1.35.608,2.747,1.237,4.116,1.862l1.85.848.127.058.006,0c3.565,1.633,7.251,3.319,10.859,5.008a7.046,7.046,0,0,0,3.028.718,6.667,6.667,0,0,0,.93-.067,6.4,6.4,0,0,0,2.2-.871c.188-.1.382-.21.578-.31,1.481-.758,3.021-1.464,4.51-2.147.634-.291,1.289-.591,1.934-.894,2.823-1.324,5.722-2.686,8.616-4.047.834-.393,1.678-.811,2.493-1.214l.009,0c.358-.177.728-.36,1.094-.539a1.98,1.98,0,0,0-1.444-.9,1.428,1.428,0,0,0-.633.161l-.823.4c-1.051.512-2.139,1.042-3.215,1.558-1.164.558-2.338,1.117-3.475,1.658-2.4,1.143-4.883,2.325-7.312,3.515-.33.161-.67.312-1,.459a10.289,10.289,0,0,0-2.842,1.651,2.685,2.685,0,0,1-1.8.67,2.882,2.882,0,0,1-2.19-.991,1.95,1.95,0,0,0-.662-.453c-1.807-.832-3.636-1.669-5.4-2.478l-.024-.012c-1.747-.8-3.552-1.625-5.326-2.443-1.133-.52-2.281-1.056-3.392-1.574h0l-.005,0c-1.109-.518-2.256-1.054-3.388-1.573a2.426,2.426,0,0,0-.991-.255A1.6,1.6,0,0,0-2414.943-1381.665Zm16.5,1.66a.56.56,0,0,0-.394.273c-.292.551-.56,1.1-.844,1.683v0c-.11.225-.224.458-.339.692.339.147.7.3,1.023.437.809.342,1.644.7,2.46,1.086.243.117.494.226.738.332h0a7.425,7.425,0,0,1,2.206,1.287,1.859,1.859,0,0,0,1.319.545,1.863,1.863,0,0,0,.608-.1,1.866,1.866,0,0,0,.557-.307,12.094,12.094,0,0,1,1.966-1.3c.955-.473,1.91-.9,2.92-1.343.425-.188.863-.382,1.3-.58-.085-.163-.168-.32-.249-.473l0,0c-.161-.3-.313-.592-.456-.886-.131-.269-.255-.553-.384-.852v0c-.084-.192-.169-.39-.264-.6-.1.038-.189.068-.279.1a1.647,1.647,0,0,0-.5.221,1.1,1.1,0,0,0-.23.285.874.874,0,0,1-.289.325,12.344,12.344,0,0,1-2.494.951,10.1,10.1,0,0,1-2.49.319,9.806,9.806,0,0,1-2.541-.339,11.581,11.581,0,0,1-2.531-1.026,1.2,1.2,0,0,1-.308-.283c-.051-.057-.1-.118-.159-.17q-.042-.04-.086-.089c-.084-.09-.173-.184-.255-.184Zm14.23-.221c-.278.049-.565.1-.847.134.057.2.11.4.162.589h0c.127.471.247.915.408,1.346a.752.752,0,0,0,.5.355.1.1,0,0,0,.04-.007c.967-.419,1.908-.865,2.905-1.336.252-.12.538-.254.822-.387a3.29,3.29,0,0,0-2.335-.889h0A9.79,9.79,0,0,0-2384.217-1380.227Zm-20.634.692.817.351.066.028h0c.962.413,1.872.8,2.8,1.2a.63.63,0,0,0,.24.057c.189,0,.317-.132.4-.415.126-.427.275-.853.431-1.3.043-.125.094-.268.141-.408a5.36,5.36,0,0,0-2.239-.52A3.827,3.827,0,0,0-2404.851-1379.534Zm-6.18-12.4c.03.149.059.3.086.452v0c.056.3.113.613.187.916.065.257.128.521.189.776v0a12.2,12.2,0,0,0,1.355,3.771c1.368,2.171,3.452,3.52,6.564,4.244a49.863,49.863,0,0,0,5.233.937,43.417,43.417,0,0,0,5.269.329,39.688,39.688,0,0,0,5.78-.42c.363-.053.733-.1,1.091-.152a18.738,18.738,0,0,0,6.016-1.519c1.611-.814,3.393-1.841,4.162-3.735a35.6,35.6,0,0,0,1.272-4.029c.164-.6.332-1.217.513-1.825h-.014c-.2,0-.367-.005-.519-.005-.529,0-.813.031-1,.211a2.3,2.3,0,0,0-.4,1.063,7.188,7.188,0,0,1-1.088,2.512,5.314,5.314,0,0,1-.906.981,5.491,5.491,0,0,1-1.2.756,9.245,9.245,0,0,1-3.963.885,10.432,10.432,0,0,1-2.028-.205,5.805,5.805,0,0,1-2.47-1.066,5.02,5.02,0,0,1-1.6-2.181c-.158-.4-.285-.825-.408-1.234-.115-.382-.233-.775-.376-1.151a1.428,1.428,0,0,0-.237-.4.668.668,0,0,0-.337-.239,15.548,15.548,0,0,0-3.061-.305,15.606,15.606,0,0,0-2.149.149.958.958,0,0,0-.946.99,7.48,7.48,0,0,1-.594,2.15,5.838,5.838,0,0,1-1.148,1.68,5.624,5.624,0,0,1-1.654,1.152,6.771,6.771,0,0,1-2.109.566,7.734,7.734,0,0,1-.852.044,19.541,19.541,0,0,1-2.351-.192l-.042,0a3.855,3.855,0,0,1-1.666-.626,8.293,8.293,0,0,1-1.373-1.174,5.225,5.225,0,0,1-.965-1.411,15.191,15.191,0,0,1-.619-1.573c-.058-.165-.118-.335-.179-.5a2.7,2.7,0,0,0-.268-.616.408.408,0,0,0-.367-.182A3.713,3.713,0,0,0-2411.032-1391.937Zm37.831,8.016a4.077,4.077,0,0,0-.525,1.144l2.288-1.089-.112-.5v0c-.1-.427-.186-.83-.3-1.336l-.728,1.362a.21.21,0,0,0-.075-.013C-2372.809-1384.356-2373-1384.2-2373.2-1383.921Zm-37.756-1.11c.038.068.077.137.119.2a.59.59,0,0,0,.321.182,1.426,1.426,0,0,1,.173.065,1.32,1.32,0,0,1,.062-.155c.05-.112.1-.229.065-.3-.06-.114-.118-.232-.175-.346v0c-.351-.715-.714-1.453-1.682-1.592a4.822,4.822,0,0,1-.659-.218l.119.279v0c.21.49.391.913.579,1.335a.232.232,0,0,0,.15.1.03.03,0,0,0,.013,0,.893.893,0,0,1,.318-.071C-2411.245-1385.547-2411.1-1385.3-2410.957-1385.031Zm22.935-9.024a6.2,6.2,0,0,0,1.189,5.456,5.052,5.052,0,0,0,4.286,2.042,10.066,10.066,0,0,0,2.137-.253c2.133-.467,3.461-1.957,3.947-4.429a8.408,8.408,0,0,0,.115-.943v0a7.852,7.852,0,0,0-.022-.9,4.389,4.389,0,0,0-4.51-4.048,5.377,5.377,0,0,0-.9.076c1.849.847,2.5,1.349,2.779,3.047s-1.359,4.628-3.963,4.633-3.749-3.348-3.549-4.738a5.589,5.589,0,0,1,1.773-2.692A3.741,3.741,0,0,0-2388.022-1394.055Zm-20.256-.564a7.311,7.311,0,0,0,1.419,6.341,5.327,5.327,0,0,0,4.128,1.717,5.876,5.876,0,0,0,2.71-.628,4.993,4.993,0,0,0,1.958-1.795,7.664,7.664,0,0,0,.952-2.482,4.454,4.454,0,0,0-.85-3.766,5.072,5.072,0,0,0-4.072-1.764c-.139,0-.282,0-.425.013h0c.122.05.215.089.29.121h0c.115.048.19.08.266.1.438.145,2.607,1.632,2.368,3.54s-2.1,3.919-4.171,3.839-3.517-1.189-3.664-3.839a3.478,3.478,0,0,1,2.271-3.466C-2406.722-1396.649-2408.033-1395.8-2408.279-1394.619Zm-7.08,2.066a3.772,3.772,0,0,0,.288,1.6,5.99,5.99,0,0,0,.913,1.549,5.07,5.07,0,0,0,2.9,1.895c-.014-.075-.027-.148-.039-.219h0c-.031-.177-.061-.346-.1-.512-.094-.439-.194-.884-.29-1.315v0c-.218-.976-.442-1.985-.633-2.991a1.787,1.787,0,0,0-.671-1.006,2.011,2.011,0,0,0-1.212-.457h-.043C-2414.9-1393.993-2415.3-1393.462-2415.359-1392.554Zm42.813.114c-.051.463-.125,1.071-.242,1.676-.141.689-.3,1.364-.462,2.078h0l0,.005c-.07.3-.142.618-.214.935a1.578,1.578,0,0,0,.236.017h.062a2.419,2.419,0,0,0,.459-.113,5.959,5.959,0,0,0,3.527-4.176,1.37,1.37,0,0,0,.018-.652,1.752,1.752,0,0,0-.26-.608,1.834,1.834,0,0,0-1.24-.818,1.355,1.355,0,0,0-.182-.012h0A1.808,1.808,0,0,0-2372.546-1392.44Zm-32.906-2.731a.753.753,0,0,0-.208.544.807.807,0,0,0,.643.759h.011a.5.5,0,0,0,.338-.178,1.042,1.042,0,0,0,.294-.695.565.565,0,0,0-.24-.432.846.846,0,0,0-.463-.167h-.017A.5.5,0,0,0-2405.452-1395.171Zm21.23-.273a.917.917,0,0,0-.651.816.616.616,0,0,0,.577.609.5.5,0,0,0,.074-.005.891.891,0,0,0,.611-.822.588.588,0,0,0-.536-.6A.43.43,0,0,0-2384.222-1395.444Zm10.824,18.793a1.006,1.006,0,0,1,.928-1.069,1.006,1.006,0,0,1,.927,1.069,1.006,1.006,0,0,1-.927,1.068A1.006,1.006,0,0,1-2373.4-1376.651Zm-22.114-8.508c-.13-.239.043-.5.261-.348a4.543,4.543,0,0,0,5.491,0c.218-.153.392.109.262.348a3.521,3.521,0,0,1-3.007,1.678A3.567,3.567,0,0,1-2395.511-1385.159Zm-27.431-15.357c-.195-.332-.375-.68-.545-1.019a2.6,2.6,0,0,0-1.513-1.515c.68-.7,1.4-1.34,1.994-2.083a5.14,5.14,0,0,1,4.191-2.15,1.266,1.266,0,0,0,.309-.075c.079-.1.159-.189.239-.283a5.092,5.092,0,0,1-.75-.408,5.08,5.08,0,0,1-2-4.586,3.814,3.814,0,0,0-.212-2.512c.906-.383,1.817-.757,2.722-1.153a5.828,5.828,0,0,1,5.21.428c-3.981,5.167-6.1,10.914-5.56,17.546A4.664,4.664,0,0,1-2422.942-1400.515Zm20.4-.611c2.238-.11,4.024.589,3.879,1.209-.086.422-.843.234-1.893.046a9.379,9.379,0,0,0-2.624-.176,16.264,16.264,0,0,0-4.356,1.071C-2406.632-1400.176-2404.355-1401.037-2402.546-1401.126Zm15.631,1.359-.117-.374a8.375,8.375,0,0,1,1.615-.953,7.19,7.19,0,0,1,6.659,1.226,3.471,3.471,0,0,1,.33.359C-2381.349-1400.4-2384.131-1400.1-2386.914-1399.767Zm-16.616-6.828-4.03,1.391C-2407.1-1406.564-2404.756-1407.467-2403.53-1406.6Zm19.978-.018c1.077-.878,3.256-.387,4.51,1.044Z" transform="translate(2429 1436.032)" fill=""/>
 
</svg>
