<svg viewBox="0 0 587 699" fill="none" xmlns="http://www.w3.org/2000/svg"><path d="M284.43 188.5H302.43C320.074 131.264 330.649 100.624 355.93 59.5C435.378 109.054 468.57 143.066 443.43 250L444.43 272C458.365 259.969 464.708 252.899 472.93 239.5C470.701 265.456 466.308 279.481 449.43 303C456.071 304.416 460.637 301.369 469.93 290.5C470.434 302.635 466.967 311.554 439.43 339.5H447.93C424.93 367 409.43 404 379.93 414.5C323.93 437 316.43 485 299.93 483L272.43 475.5C252.29 444.92 240.202 429.72 211.93 419C186.632 404.149 174.374 394.009 161.43 367.5L139.43 339H147.93C127.169 320.89 121.318 310.426 115.93 291.5C122.777 298.373 127.859 301.815 138.43 307.5C122.558 282.625 117.667 268.471 115.93 242.5C124.255 253.578 127.236 260.072 142.43 270L143.93 251.5C123.751 169.42 136.532 126.751 230.43 60.5C259.564 106.156 267.741 136.145 284.43 188.5Z" fill="white" stroke="black"></path><path d="M325.43 428C344.93 398.5 390.93 401 393.43 339C379.93 374 330.93 389 325.43 428Z" fill="black" stroke="black"></path><path d="M293.43 493V475.5C303.015 466.359 307.181 466.207 312.43 475C323.91 455.485 331.506 447.108 345.43 433C355.686 421.417 372.93 418.5 394.93 402C421.128 382.851 422.93 357.5 445.43 340L431.43 343.5C455.416 322.927 463.633 312.119 469.93 294C459.43 305 445.955 310.344 427.43 323C460.36 292.471 467.592 275.403 470.93 245C459.439 264.648 447.915 271.462 428.43 284.5C438.138 277.132 441.392 274.034 441.93 271C444.948 255 435.43 239.5 431.43 216.5C426.403 224.515 424.879 230.038 422.93 240.5C419.2 222.563 421.298 220.188 423.43 213C415.646 216.816 413.026 221.757 408.93 231.5C409.716 189.626 410.776 192.48 412.43 187.5C397.779 193.635 392.663 199.948 384.93 212.5C383.191 202.246 384.19 199.069 386.43 194C379.616 198.861 376.903 203.37 372.43 212C375.908 198.343 380.019 194.521 388.93 190.5C386.684 196.213 386.078 199.396 387.43 205C394.785 191.779 401.474 187.965 415.43 184C411.302 197.278 411.596 205.517 411.43 220C416.864 211.412 420.958 208.931 428.93 206C423.753 214.907 423.313 220.279 423.43 230C425.077 221.541 426.684 217.224 431.93 211C434.578 223.357 439.476 236.407 442.856 247.5C443.599 249.937 444.268 252.28 444.824 254.5C446.038 259.348 446.712 263.612 446.43 267C461.814 253.339 467.878 244.267 473.93 225.5C474.276 260.374 468.811 277.136 451.876 302.826C463.808 298.12 467.718 292.808 471.93 281C473.935 304.507 465 316.45 442.93 337C447.128 336.753 449.172 336.769 451.43 337.5C430.43 359.5 426.501 382.475 400.93 405.5C384.93 421.5 366.515 420.45 350.93 435C335.121 446.38 328.089 457.672 315.43 477.5C306.367 491.231 301.665 492.76 293.43 493Z" fill="black"></path><path d="M354.43 64C367.93 77.5 477.93 120 442.856 247.5C443.599 249.937 444.268 252.28 444.824 254.5C466.276 173.805 441.43 113 403.93 1C329.448 65.1468 328.765 111.234 301.43 187H293.43V190.5C313.475 189.034 324.776 191.621 344.93 196C330.973 190.5 322.4 188.294 304.43 187.5C321.277 130.791 331.937 102.839 354.43 64Z" fill="black"></path><path d="M451.43 303C451.58 302.942 451.728 302.884 451.876 302.826M451.43 303.5C451.579 303.275 451.728 303.05 451.876 302.826M451.876 302.826C468.811 277.136 474.276 260.374 473.93 225.5C467.878 244.267 461.814 253.339 446.43 267C446.712 263.612 446.038 259.348 444.824 254.5M451.876 302.826C463.808 298.12 467.718 292.808 471.93 281C473.935 304.507 465 316.45 442.93 337C447.128 336.753 449.172 336.769 451.43 337.5C430.43 359.5 426.501 382.475 400.93 405.5C384.93 421.5 366.515 420.45 350.93 435C335.121 446.38 328.089 457.672 315.43 477.5C306.367 491.231 301.665 492.76 293.43 493V475.5C303.015 466.359 307.181 466.207 312.43 475C323.91 455.485 331.506 447.108 345.43 433C355.686 421.417 372.93 418.5 394.93 402C421.128 382.851 422.93 357.5 445.43 340L431.43 343.5C455.416 322.927 463.633 312.119 469.93 294C459.43 305 445.955 310.344 427.43 323C460.36 292.471 467.592 275.403 470.93 245C459.439 264.648 447.915 271.462 428.43 284.5C438.138 277.132 441.392 274.034 441.93 271C444.948 255 435.43 239.5 431.43 216.5C426.403 224.515 424.879 230.038 422.93 240.5C419.2 222.563 421.298 220.188 423.43 213C415.646 216.816 413.026 221.757 408.93 231.5C409.716 189.626 410.776 192.48 412.43 187.5C397.779 193.635 392.663 199.948 384.93 212.5C383.191 202.246 384.19 199.069 386.43 194C379.616 198.861 376.903 203.37 372.43 212C375.908 198.343 380.019 194.521 388.93 190.5C386.684 196.213 386.078 199.396 387.43 205C394.785 191.779 401.474 187.965 415.43 184C411.302 197.278 411.596 205.517 411.43 220C416.864 211.412 420.958 208.931 428.93 206C423.753 214.907 423.313 220.279 423.43 230C425.077 221.541 426.684 217.224 431.93 211C434.578 223.357 439.476 236.407 442.856 247.5M442.856 247.5C477.93 120 367.93 77.5 354.43 64C331.937 102.839 321.277 130.791 304.43 187.5C322.4 188.294 330.973 190.5 344.93 196C324.776 191.621 313.475 189.034 293.43 190.5V187H301.43C328.765 111.234 329.448 65.1468 403.93 1C441.43 113 466.276 173.805 444.824 254.5M442.856 247.5C443.599 249.937 444.268 252.28 444.824 254.5" stroke="black"></path><path d="M261.433 428C241.934 398.5 195.938 401 193.438 339C206.937 374 255.933 389 261.433 428Z" fill="black" stroke="black"></path><path d="M293.43 493V475.5C283.846 466.359 279.68 466.207 274.432 475C262.952 455.485 255.357 447.108 241.434 433C231.179 421.417 213.937 418.5 191.939 402C165.743 382.851 163.941 357.5 141.443 340L155.442 343.5C131.457 322.927 123.242 312.119 116.945 294C127.444 305 140.917 310.344 159.441 323C126.514 292.471 119.283 275.403 115.945 245C127.435 264.648 138.958 271.462 158.441 284.5C148.735 277.132 145.48 274.034 144.943 271C141.925 255 151.442 239.5 155.442 216.5C160.468 224.515 161.992 230.038 163.941 240.5C167.671 222.563 165.573 220.188 163.441 213C171.224 216.816 173.844 221.757 177.94 231.5C177.153 189.626 176.094 192.48 174.44 187.5C189.089 193.635 194.205 199.948 201.938 212.5C203.676 202.246 202.678 199.069 200.438 194C207.251 198.861 209.963 203.37 214.437 212C210.959 198.343 206.848 194.521 197.938 190.5C200.184 196.213 200.79 199.396 199.438 205C192.083 191.779 185.395 187.965 171.44 184C175.568 197.278 175.273 205.517 175.44 220C170.006 211.412 165.913 208.931 157.941 206C163.118 214.907 163.558 220.279 163.441 230C161.794 221.541 160.188 217.224 154.942 211C152.294 223.357 147.396 236.407 144.016 247.5C143.274 249.937 142.605 252.28 142.049 254.5C140.835 259.348 140.161 263.612 140.443 267C125.06 253.339 118.997 244.267 112.945 225.5C112.599 260.374 118.064 277.136 134.998 302.826C123.066 298.12 119.157 292.808 114.945 281C112.94 304.507 121.875 316.45 143.943 337C139.745 336.753 137.701 336.769 135.443 337.5C156.442 359.5 160.37 382.475 185.939 405.5C201.938 421.5 220.351 420.45 235.935 435C251.742 446.38 258.773 457.672 271.432 477.5C280.494 491.231 285.196 492.76 293.43 493Z" fill="black"></path><path d="M232.435 64C218.936 77.5 108.946 120 144.016 247.5C143.274 249.937 142.605 252.28 142.049 254.5C120.599 173.805 145.443 113 182.939 1C257.415 65.1468 258.098 111.234 285.431 187H293.43V190.5C273.387 189.034 262.086 191.621 241.934 196C255.89 190.5 264.462 188.294 282.431 187.5C265.585 130.791 254.926 102.839 232.435 64Z" fill="black"></path><path d="M135.443 303C135.294 302.942 135.145 302.884 134.998 302.826M135.443 303.5C135.294 303.275 135.145 303.05 134.998 302.826M134.998 302.826C118.064 277.136 112.599 260.374 112.945 225.5C118.997 244.267 125.06 253.339 140.443 267C140.161 263.612 140.835 259.348 142.049 254.5M134.998 302.826C123.066 298.12 119.157 292.808 114.945 281C112.94 304.507 121.875 316.45 143.943 337C139.745 336.753 137.701 336.769 135.443 337.5C156.442 359.5 160.37 382.475 185.939 405.5C201.938 421.5 220.351 420.45 235.935 435C251.742 446.38 258.773 457.672 271.432 477.5C280.494 491.231 285.196 492.76 293.43 493V475.5C283.846 466.359 279.68 466.207 274.432 475C262.952 455.485 255.357 447.108 241.434 433C231.179 421.417 213.937 418.5 191.939 402C165.743 382.851 163.941 357.5 141.443 340L155.442 343.5C131.457 322.927 123.242 312.119 116.945 294C127.444 305 140.917 310.344 159.441 323C126.514 292.471 119.283 275.403 115.945 245C127.435 264.648 138.958 271.462 158.441 284.5C148.735 277.132 145.48 274.034 144.943 271C141.925 255 151.442 239.5 155.442 216.5C160.468 224.515 161.992 230.038 163.941 240.5C167.671 222.563 165.573 220.188 163.441 213C171.224 216.816 173.844 221.757 177.94 231.5C177.153 189.626 176.094 192.48 174.44 187.5C189.089 193.635 194.205 199.948 201.938 212.5C203.676 202.246 202.678 199.069 200.438 194C207.251 198.861 209.963 203.37 214.437 212C210.959 198.343 206.848 194.521 197.938 190.5C200.184 196.213 200.79 199.396 199.438 205C192.083 191.779 185.395 187.965 171.44 184C175.568 197.278 175.273 205.517 175.44 220C170.006 211.412 165.913 208.931 157.941 206C163.118 214.907 163.558 220.279 163.441 230C161.794 221.541 160.188 217.224 154.942 211C152.294 223.357 147.396 236.407 144.016 247.5M144.016 247.5C108.946 120 218.936 77.5 232.435 64C254.926 102.839 265.585 130.791 282.431 187.5C264.462 188.294 255.89 190.5 241.934 196C262.086 191.621 273.387 189.034 293.43 190.5V187H285.431C258.098 111.234 257.415 65.1468 182.939 1C145.443 113 120.599 173.805 142.049 254.5M144.016 247.5C143.274 249.937 142.605 252.28 142.049 254.5" stroke="black"></path><circle cx="295.24" cy="256.5" r="7.5" stroke="#078DEE" stroke-width="4"></circle><path d="M300.74 271.681C307.686 275.134 320.586 271.681 324.555 262.801C329.516 249.974 317.609 246.521 312.647 257.868C310.095 264.028 307.917 267.212 300.74 271.681Z" fill="#078DEE"></path><path d="M289.93 271.681C282.984 275.134 270.084 271.681 266.115 262.801C261.154 249.974 273.061 246.521 278.023 257.868C280.575 264.028 282.753 267.212 289.93 271.681Z" fill="#078DEE"></path><path d="M375.418 202C335.418 238 380.918 268.5 343.418 320C393.418 264.5 366.918 251 375.418 202Z" fill="#078DEE"></path><path d="M401.418 208.5C382.418 241 408.418 252.5 369.418 293C388.918 269 371.418 240 401.418 208.5Z" fill="#078DEE"></path><path d="M432.918 247.5C428.616 266.994 422.135 275.382 404.418 286.5C393.896 294.116 389.688 300.092 385.418 314C395.165 302.717 400.92 296.67 414.418 289C414.851 307.953 413.64 318.484 407.418 337C416.455 322.747 421.622 314.994 423.918 284.5C430.755 265.779 431.981 258.634 432.918 247.5Z" fill="#078DEE"></path><path d="M393.418 340.5C400.742 326.369 403.567 318.227 407.418 303.5C404.58 330.39 402.163 345.035 388.918 366.5L393.418 340.5Z" fill="#078DEE"></path><path d="M379.918 390C392.683 377.761 399.786 370.861 405.918 354C410.458 344.061 413.45 338.765 423.918 332.5C405.168 356 416.918 374.5 379.918 390Z" fill="#078DEE"></path><path d="M354.918 340.5C343.284 373.893 336.999 394.478 320.918 393C311.278 381.423 333.94 364.001 354.918 340.5Z" fill="#078DEE"></path><path d="M364.918 324.5C371.418 325.5 368.918 332.5 364.918 333C360.418 332.5 358.418 325.5 364.918 324.5Z" fill="#078DEE"></path><path d="M370.418 313C372.918 313 373.918 318.5 370.418 318.5C366.918 318.5 367.918 313 370.418 313Z" fill="#078DEE"></path><path d="M374.918 299C378.918 299 380.918 308 374.918 308C368.418 308 370.918 299 374.918 299Z" fill="#078DEE"></path><path d="M375.418 202C335.418 238 380.918 268.5 343.418 320C393.418 264.5 366.918 251 375.418 202Z" stroke="#078DEE"></path><path d="M401.418 208.5C382.418 241 408.418 252.5 369.418 293C388.918 269 371.418 240 401.418 208.5Z" stroke="#078DEE"></path><path d="M432.918 247.5C428.616 266.994 422.135 275.382 404.418 286.5C393.896 294.116 389.688 300.092 385.418 314C395.165 302.717 400.92 296.67 414.418 289C414.851 307.953 413.64 318.484 407.418 337C416.455 322.747 421.622 314.994 423.918 284.5C430.755 265.779 431.981 258.634 432.918 247.5Z" stroke="#078DEE"></path><path d="M393.418 340.5C400.742 326.369 403.567 318.227 407.418 303.5C404.58 330.39 402.163 345.035 388.918 366.5L393.418 340.5Z" stroke="#078DEE"></path><path d="M379.918 390C392.683 377.761 399.786 370.861 405.918 354C410.458 344.061 413.45 338.765 423.918 332.5C405.168 356 416.918 374.5 379.918 390Z" stroke="#078DEE"></path><path d="M354.918 340.5C343.284 373.893 336.999 394.478 320.918 393C311.278 381.423 333.94 364.001 354.918 340.5Z" stroke="#078DEE"></path><path d="M364.918 324.5C371.418 325.5 368.918 332.5 364.918 333C360.418 332.5 358.418 325.5 364.918 324.5Z" stroke="#078DEE"></path><path d="M370.418 313C372.918 313 373.918 318.5 370.418 318.5C366.918 318.5 367.918 313 370.418 313Z" stroke="#078DEE"></path><path d="M374.918 299C378.918 299 380.918 308 374.918 308C368.418 308 370.918 299 374.918 299Z" stroke="#078DEE"></path><path d="M211.425 202C251.422 238 205.926 268.5 243.422 320C193.427 264.5 219.924 251 211.425 202Z" fill="#078DEE"></path><path d="M185.427 208.5C204.426 241 178.428 252.5 217.425 293C197.926 269 215.425 240 185.427 208.5Z" fill="#078DEE"></path><path d="M153.93 247.5C158.232 266.994 164.711 275.382 182.428 286.5C192.948 294.116 197.156 300.092 201.426 314C191.68 302.717 185.925 296.67 172.429 289C171.995 307.953 173.206 318.484 179.428 337C170.391 322.747 165.225 314.994 162.929 284.5C156.093 265.779 154.866 258.634 153.93 247.5Z" fill="#078DEE"></path><path d="M193.427 340.5C186.102 326.369 183.278 318.227 179.428 303.5C182.265 330.39 184.682 345.035 197.926 366.5L193.427 340.5Z" fill="#078DEE"></path><path d="M206.926 390C194.161 377.761 187.059 370.861 180.928 354C176.387 344.061 173.396 338.765 162.929 332.5C181.678 356 169.929 374.5 206.926 390Z" fill="#078DEE"></path><path d="M231.923 340.5C243.556 373.893 249.84 394.478 265.921 393C275.56 381.423 252.899 364.001 231.923 340.5Z" fill="#078DEE"></path><path d="M221.924 324.5C215.425 325.5 217.924 332.5 221.924 333C226.424 332.5 228.424 325.5 221.924 324.5Z" fill="#078DEE"></path><path d="M216.425 313C213.925 313 212.925 318.5 216.425 318.5C219.924 318.5 218.924 313 216.425 313Z" fill="#078DEE"></path><path d="M211.925 299C207.925 299 205.925 308 211.925 308C218.424 308 215.925 299 211.925 299Z" fill="#078DEE"></path><path d="M211.425 202C251.422 238 205.926 268.5 243.422 320C193.427 264.5 219.924 251 211.425 202Z" stroke="#078DEE"></path><path d="M185.427 208.5C204.426 241 178.428 252.5 217.425 293C197.926 269 215.425 240 185.427 208.5Z" stroke="#078DEE"></path><path d="M153.93 247.5C158.232 266.994 164.711 275.382 182.428 286.5C192.948 294.116 197.156 300.092 201.426 314C191.68 302.717 185.925 296.67 172.429 289C171.995 307.953 173.206 318.484 179.428 337C170.391 322.747 165.225 314.994 162.929 284.5C156.093 265.779 154.866 258.634 153.93 247.5Z" stroke="#078DEE"></path><path d="M193.427 340.5C186.102 326.369 183.278 318.227 179.428 303.5C182.265 330.39 184.682 345.035 197.926 366.5L193.427 340.5Z" stroke="#078DEE"></path><path d="M206.926 390C194.161 377.761 187.059 370.861 180.928 354C176.387 344.061 173.396 338.765 162.929 332.5C181.678 356 169.929 374.5 206.926 390Z" stroke="#078DEE"></path><path d="M231.923 340.5C243.556 373.893 249.84 394.478 265.921 393C275.56 381.423 252.899 364.001 231.923 340.5Z" stroke="#078DEE"></path><path d="M221.924 324.5C215.425 325.5 217.924 332.5 221.924 333C226.424 332.5 228.424 325.5 221.924 324.5Z" stroke="#078DEE"></path><path d="M216.425 313C213.925 313 212.925 318.5 216.425 318.5C219.924 318.5 218.924 313 216.425 313Z" stroke="#078DEE"></path><path d="M211.925 299C207.925 299 205.925 308 211.925 308C218.424 308 215.925 299 211.925 299Z" stroke="#078DEE"></path><path d="M13.8 598.267H38.3333V592.8H74.6V617.067H38.3333V643.6H74.6V671.733L1.4 673.733V698H88.0667C97.7082 693.144 102.773 689.894 103.8 671.733V592.8H115.8V565.867H70.7333H43.8L1 564V590.533H13.8V598.267Z" fill="#f8f9fc" stroke="#f8f9fc"></path><path d="M217.251 656.98L225.065 684.717L128.179 698L125.444 668.7H134.429V629.242H125.444V607.364H134.429V594.472H142.633V589.394H125.444V564H214.126V589.394H164.12V603.458H202.797L196.546 629.242H164.12V662.84L217.251 656.98Z" fill="#f8f9fc" stroke="#f8f9fc"></path><path d="M234.709 698V564H263.945L263.078 578.314C292.424 585.601 303.798 593.217 313.891 611.509V564H342.518V679.118C337.144 696.663 325.484 696.344 306.582 698V669.373C332.39 665.674 299.882 608.464 263.945 606.636L262.727 698H234.709Z" fill="#f8f9fc"></path><path d="M234.709 564V698H262.727L263.945 606.636C299.882 608.464 332.39 665.674 306.582 669.373V698C325.484 696.344 337.144 696.663 342.518 679.118V564H313.891V611.509C303.798 593.217 292.424 585.601 263.078 578.314L262.727 584.1L263.945 564H234.709Z" stroke="#f8f9fc"></path><path d="M352.162 566.754V695.796H379.696V649.372L386.272 645.831L420.381 695.796C439.109 699.996 448.563 699.08 461.478 685.174L452.436 661.568C434.777 676.7 425.832 657.377 409.696 628.128L452.436 585.638L432.299 564L386.272 611.604H379.696V566.754H352.162Z" fill="#f8f9fc" stroke="#f8f9fc"></path><path fill-rule="evenodd" clip-rule="evenodd" d="M497.348 564L471.122 570.147V684.067C471.122 691.443 477.678 698 488.742 698H572.748C580.534 698 585.862 695.131 585.862 686.936V579.162C586.106 569.323 583.05 566.448 574.388 564H508.412L497.348 576.294V564ZM499.807 669.315V591.456H555.947V669.315H499.807Z" fill="#f8f9fc" stroke="#f8f9fc"></path></svg>