<?xml version="1.0" encoding="utf-8"?>
<svg  viewBox="0 0 67.997915 96.308333" version="1.1" id="svg1" xmlns="http://www.w3.org/2000/svg">
  <g id="layer1">
    <rect style="fill:#88a8c8;fill-opacity:1;stroke-width:0.264583" id="rect1" width="67.997917" height="96.308334" x="0" y="0"/>
    <path d="M 34.749 78.715 C 34.433 78.879 33.799 78.887 33.479 78.731 L 17.689 71.009 C 17.534 70.934 17.347 70.687 17.315 70.517 L 14.077 52.951 C 14.016 52.619 14.264 52.421 14.574 52.557 L 33.594 60.841 C 33.856 60.955 34.377 60.949 34.637 60.829 L 52.52 52.557 C 52.812 52.421 53.046 52.619 52.989 52.951 L 49.939 70.517 C 49.91 70.687 49.734 70.934 49.588 71.009 L 34.749 78.715 Z M 31.102 52.708 C 31.193 52.462 31.495 53.003 32.041 53.011 C 32.588 53.019 33.299 52.596 33.913 52.578 C 34.528 52.56 35.286 52.932 35.787 52.892 C 36.287 52.853 36.582 52.358 36.694 52.564 C 36.806 52.77 36.209 53.114 35.747 53.114 C 35.284 53.116 34.552 52.607 33.922 52.628 C 33.291 52.648 32.504 53.232 31.989 53.216 C 31.475 53.201 31.011 52.955 31.102 52.708 Z M 31.08 41.931 C 31.212 42.891 31.237 42.909 32.257 42.742 C 33.143 42.596 35.69 42.668 36.33 42.855 C 36.618 42.939 36.669 42.881 36.755 42.375 C 36.929 41.336 37.269 40.454 37.656 40.036 C 38.491 39.136 40.423 38.538 42.416 38.48 C 42.083 38.277 41.643 38.153 40.972 38.067 C 39.646 37.896 38.301 37.212 37.668 34.984 C 37.44 36.023 37.902 38.44 36.135 39.57 C 34.368 40.7 33.384 40.725 33.237 41.454 C 33.067 40.541 33.063 40.062 31.889 39.424 C 30.715 38.785 29.991 37.631 30.206 35.325 C 29.618 36.213 29.148 38.166 27.091 38.581 C 27.034 38.593 26.976 38.605 26.92 38.617 C 29.545 39.02 30.821 40.04 31.08 41.931 Z M 44.099 38.566 C 45.392 38.743 46.381 39.015 47.103 39.434 C 46.988 39.142 46.795 38.821 46.504 38.426 C 45.712 37.349 44.391 37.323 45.564 35.326 C 45.157 35.575 44.755 35.983 44.395 36.473 C 43.661 37.477 43.335 38.041 43.219 38.487 C 43.515 38.5 43.81 38.526 44.099 38.566 Z M 48.449 44.594 C 48.066 46.595 47.425 47.82 46.37 48.571 C 44.717 49.747 42.435 50.036 40.528 49.31 C 39.214 48.81 38.013 48.006 37.527 47.301 C 37.054 46.616 36.677 45.226 36.677 44.166 C 36.677 43.433 36.648 43.368 36.264 43.262 C 35.728 43.113 32.228 43.112 31.696 43.261 C 31.339 43.361 31.284 43.453 31.284 43.945 C 31.284 44.811 30.989 46.219 30.682 46.822 C 30.079 48.003 28.202 49.208 26.367 49.592 C 24.04 50.079 21.477 49.088 20.395 47.282 C 19.423 45.66 18.948 41.891 19.562 40.685 C 19.619 40.574 19.686 40.467 19.764 40.362 C 19.204 40.097 18.423 40.043 17.534 39.907 C 17.326 39.876 17.133 39.852 16.953 39.827 C 17.208 42.059 17.904 44.158 18.952 46.039 C 18.059 47.377 16.668 50.145 18.843 52.034 C 19.2 52.344 19.615 52.637 20.079 52.911 C 23.459 54.917 29.376 55.97 33.705 55.854 C 34.612 55.83 35.603 55.777 36.63 55.683 C 41.169 55.272 46.412 54.093 48.293 51.287 C 49.782 49.067 49.122 47.413 48.486 46.508 C 49.72 44.452 50.526 42.115 50.779 39.616 C 50.556 39.699 50.305 39.762 50.022 39.8 C 49.032 39.929 48.428 40.055 48.021 40.216 C 48.751 41.156 48.842 42.545 48.449 44.594 Z M 23.564 38.584 C 23.651 38.573 23.734 38.562 23.815 38.552 C 23.647 38.369 23.438 38.153 23.191 37.861 L 22.341 35.74 C 22.341 35.74 22.086 36.967 20.994 38.391 C 20.415 39.143 20.219 39.584 20.187 39.911 C 20.936 39.253 22.142 38.77 23.564 38.584 Z M 21.777 39.487 C 21.116 39.735 20.621 40.048 20.278 40.465 C 20.327 40.606 20.384 40.751 20.411 40.932 C 20.34 40.813 20.256 40.711 20.159 40.622 C 19.646 41.361 19.553 42.398 19.805 43.895 C 20.153 45.952 20.556 46.906 21.456 47.806 C 23.301 49.651 26.309 49.768 28.837 48.092 C 29.848 47.422 30.321 46.78 30.604 45.693 C 31.035 44.037 30.792 41.487 30.112 40.525 C 29.748 40.009 28.421 39.37 27.165 39.104 C 26.692 39.004 26.203 38.941 25.708 38.914 C 24.83 39.183 24.568 39.453 24.281 39.902 C 24.364 39.461 24.314 39.208 24.144 38.949 C 23.32 39.031 22.514 39.211 21.777 39.487 Z M 38.209 40.144 C 37.519 40.724 37.243 41.577 37.161 43.382 C 37.07 45.398 37.331 46.408 38.182 47.331 C 39.331 48.578 41.754 49.495 43.334 49.28 C 45.079 49.044 46.687 48.043 47.32 46.8 C 48.101 45.269 48.47 41.941 47.975 40.897 C 47.891 40.72 47.782 40.556 47.646 40.404 C 47.43 40.545 47.283 40.713 47.127 40.923 C 47.213 40.595 47.258 40.316 47.243 40.043 C 46.67 39.625 45.819 39.316 44.64 39.089 C 44.156 38.996 43.66 38.939 43.164 38.917 C 43.165 39.055 43.182 39.193 43.208 39.342 C 43.106 39.178 43.007 39.035 42.904 38.909 C 41.016 38.871 39.18 39.328 38.209 40.144 Z M 26.711 56.693 C 26.589 56.808 26.496 56.856 26.362 57.017 C 26.362 57.018 26.361 57.02 26.36 57.02 L 19.361 53.972 C 19.445 53.837 19.542 53.696 19.655 53.549 C 19.703 53.486 19.788 53.404 19.841 53.34 C 19.536 53.466 19.231 53.629 18.899 53.771 L 13.871 51.581 C 13.785 51.543 13.703 51.531 13.631 51.539 C 13.634 51.319 13.619 51.069 13.588 50.78 C 13.446 49.451 13.796 47.983 15.814 46.847 C 14.75 46.869 12.877 47.595 11.365 46.14 C 9.853 44.686 9.423 44.553 8.679 44.581 C 9.528 44.202 9.895 43.825 10.242 42.535 C 10.588 41.244 11.446 40.001 13.738 39.671 C 12.738 39.307 10.73 39.307 9.845 37.405 C 8.96 35.502 8.608 35.223 7.904 34.98 C 8.832 34.933 9.311 34.715 10.1 33.637 C 10.889 32.559 12.138 31.71 14.394 32.229 C 13.593 31.529 11.72 30.803 11.582 28.71 C 11.445 26.618 11.217 26.231 10.649 25.75 C 11.531 26.039 12.056 26.011 13.182 25.289 C 14.307 24.567 15.778 24.229 17.694 25.529 C 17.201 24.584 15.716 23.23 16.344 21.228 C 16.972 19.23 16.899 18.786 16.543 18.133 C 17.26 18.72 17.761 18.884 19.071 18.619 C 20.38 18.354 21.875 18.566 23.193 20.47 C 23.073 19.414 22.178 17.616 23.486 15.972 C 24.794 14.337 24.887 13.897 24.791 13.155 C 25.247 13.966 25.655 14.297 26.972 14.525 C 28.289 14.749 29.606 15.491 30.146 17.742 C 30.416 16.71 30.231 14.713 32.044 13.657 C 33.856 12.596 34.101 12.221 34.279 11.5 C 34.411 12.417 34.673 12.878 35.819 13.563 C 36.966 14.248 37.926 15.414 37.616 17.709 C 38.24 16.845 38.79 14.912 40.862 14.586 C 42.933 14.252 43.298 13.991 43.725 13.383 C 43.515 14.284 43.595 14.806 44.416 15.858 C 45.237 16.914 45.712 18.349 44.594 20.376 C 45.487 19.797 46.698 18.194 48.749 18.635 C 50.8 19.075 51.235 18.961 51.853 18.549 C 51.331 19.316 51.217 19.829 51.602 21.11 C 51.987 22.39 52.378 23.805 50.602 25.293 C 51.662 24.934 53.163 24.29 54.641 25.26 C 56.394 26.414 56.841 26.463 57.566 26.3 C 56.802 26.83 56.51 27.266 56.407 28.6 C 56.303 29.931 55.592 31.343 53.4 32.089 C 54.45 32.263 56.521 31.861 57.74 33.569 C 58.959 35.276 59.357 35.485 60.093 35.595 C 59.19 35.811 58.759 36.114 58.181 37.319 C 57.603 38.524 56.43 39.584 54.117 39.487 C 55.034 40.029 57.109 40.402 57.629 42.434 C 58.149 44.467 58.445 44.806 59.091 45.174 C 58.171 45.05 57.66 45.177 56.686 46.092 C 55.712 47.006 54.236 47.57 52.113 46.645 C 52.772 47.48 54.573 48.579 54.323 50.662 C 54.074 52.745 54.227 53.167 54.697 53.745 C 54.256 53.502 53.9 53.37 53.47 53.382 L 53.711 51.991 C 53.771 51.646 53.528 51.441 53.225 51.581 L 48.937 53.565 C 48.519 53.34 48.091 53.024 47.659 52.595 C 47.77 52.955 48.001 53.397 48.211 53.9 L 41.564 56.975 C 41.507 56.865 41.451 56.749 41.397 56.627 C 41.388 56.758 41.388 56.9 41.392 57.055 L 40.805 57.326 C 39.717 56.477 38.251 55.943 36.806 55.865 C 36.764 57.379 35.523 58.594 33.998 58.594 C 32.473 58.594 31.232 57.378 31.191 55.863 L 31.103 55.863 C 29.653 55.85 28.169 56.396 27.06 57.325 L 26.585 57.119 C 26.621 56.98 26.663 56.839 26.711 56.693 Z M 12.871 53.252 C 13.132 52.989 13.321 52.754 13.446 52.482 L 13.553 53.066 C 13.308 53.083 13.103 53.152 12.871 53.252 Z" id="e-book" style=""/>
    <text style="font-size: 3.175px; text-align: start; writing-mode: lr-tb; direction: ltr; text-anchor: start; fill: rgb(0, 0, 0); stroke-width: 0.264583; white-space: pre;" x="33.097015" y="83.512917" id="text1"><tspan id="tspan1" style="font-style:normal;font-variant:normal;font-weight:normal;font-stretch:normal;font-family: 'Troubleside', sans-serif; text-transform: uppercase;text-align:center;text-anchor:middle;fill:#000000;stroke-width:0.264583" x="33.097015" y="83.512917" dx="0">Waiting for the pixels to align</tspan></text>
  </g>
</svg>
