<svg xmlns="http://www.w3.org/2000/svg" viewBox="0 0 896 896"><g fill="#0004"><circle r="20"/><circle cx="40" r="20"/><circle cx="80" r="20"/><circle cx="120" r="20"/><circle cx="160" r="20"/><circle cx="200" r="20"/><circle cx="240" r="20"/><circle cx="280" r="20"/><circle cx="320" r="20"/><circle cx="360" r="20"/><circle cx="400" r="20"/><circle cx="440" r="20"/><circle cx="480" r="20"/><circle cx="520" r="20"/><circle cx="560" r="20"/><circle cx="600" r="20"/><circle cx="640" r="20"/><circle cx="680" r="20"/><circle cx="720" r="20"/><circle cx="760" r="20"/><circle cx="800" r="20"/><circle cx="840" r="20"/><circle cx="880" r="20"/><circle cy="40" r="20"/><circle cx="40" cy="40" r="20"/><circle cx="80" cy="40" r="20"/><circle cx="120" cy="40" r="20"/><circle cx="160" cy="40" r="20"/><circle cx="200" cy="40" r="20"/><circle cx="240" cy="40" r="20"/><circle cx="280" cy="40" r="20"/><circle cx="320" cy="40" r="20"/><circle cx="360" cy="40" r="20"/><circle cx="400" cy="40" r="20"/><circle cx="440" cy="40" r="20"/><circle cx="480" cy="40" r="20"/><circle cx="520" cy="40" r="20"/><circle cx="560" cy="40" r="20"/><circle cx="600" cy="40" r="20"/><circle cx="640" cy="40" r="20"/><circle cx="680" cy="40" r="20"/><circle cx="720" cy="40" r="20"/><circle cx="760" cy="40" r="20"/><circle cx="800" cy="40" r="20"/><circle cx="840" cy="40" r="20"/><circle cx="880" cy="40" r="20"/><circle cy="80" r="20"/><circle cx="40" cy="80" r="20"/><circle cx="80" cy="80" r="20"/><circle cx="120" cy="80" r="20"/><circle cx="160" cy="80" r="20"/><circle cx="200" cy="80" r="20"/><circle cx="240" cy="80" r="20"/><circle cx="280" cy="80" r="20"/><circle cx="320" cy="80" r="20"/><circle cx="360" cy="80" r="20"/><circle cx="400" cy="80" r="20"/><circle cx="440" cy="80" r="20"/><circle cx="480" cy="80" r="20"/><circle cx="520" cy="80" r="20"/><circle cx="560" cy="80" r="20"/><circle cx="600" cy="80" r="20"/><circle cx="640" cy="80" r="20"/><circle cx="680" cy="80" r="20"/><circle cx="720" cy="80" r="20"/><circle cx="760" cy="80" r="20"/><circle cx="800" cy="80" r="20"/><circle cx="840" cy="80" r="20"/><circle cx="880" cy="80" r="20"/><circle cy="120" r="20"/><circle cx="40" cy="120" r="20"/><circle cx="80" cy="120" r="20"/><circle cx="120" cy="120" r="20"/><circle cx="160" cy="120" r="20"/><circle cx="200" cy="120" r="20"/><circle cx="240" cy="120" r="20"/><circle cx="280" cy="120" r="20"/><circle cx="320" cy="120" r="20"/><circle cx="360" cy="120" r="20"/><circle cx="400" cy="120" r="20"/><circle cx="440" cy="120" r="20"/><circle cx="480" cy="120" r="20"/><circle cx="520" cy="120" r="20"/><circle cx="560" cy="120" r="20"/><circle cx="600" cy="120" r="20"/><circle cx="640" cy="120" r="20"/><circle cx="680" cy="120" r="20"/><circle cx="720" cy="120" r="20"/><circle cx="760" cy="120" r="20"/><circle cx="800" cy="120" r="20"/><circle cx="840" cy="120" r="20"/><circle cx="880" cy="120" r="20"/><circle cy="160" r="20"/><circle cx="40" cy="160" r="20"/><circle cx="80" cy="160" r="20"/><circle cx="120" cy="160" r="20"/><circle cx="160" cy="160" r="20"/><circle cx="200" cy="160" r="20"/><circle cx="240" cy="160" r="20"/><circle cx="280" cy="160" r="20"/><circle cx="320" cy="160" r="20"/><circle cx="360" cy="160" r="20"/><circle cx="400" cy="160" r="20"/><circle cx="440" cy="160" r="20"/><circle cx="480" cy="160" r="20"/><circle cx="520" cy="160" r="20"/><circle cx="560" cy="160" r="20"/><circle cx="600" cy="160" r="20"/><circle cx="640" cy="160" r="20"/><circle cx="680" cy="160" r="20"/><circle cx="720" cy="160" r="20"/><circle cx="760" cy="160" r="20"/><circle cx="800" cy="160" r="20"/><circle cx="840" cy="160" r="20"/><circle cx="880" cy="160" r="20"/><circle cy="200" r="20"/><circle cx="40" cy="200" r="20"/><circle cx="80" cy="200" r="20"/><circle cx="120" cy="200" r="20"/><circle cx="160" cy="200" r="20"/><circle cx="200" cy="200" r="20"/><circle cx="240" cy="200" r="20"/><circle cx="280" cy="200" r="20"/><circle cx="320" cy="200" r="20"/><circle cx="360" cy="200" r="20"/><circle cx="400" cy="200" r="20"/><circle cx="440" cy="200" r="20"/><circle cx="480" cy="200" r="20"/><circle cx="520" cy="200" r="20"/><circle cx="560" cy="200" r="20"/><circle cx="600" cy="200" r="20"/><circle cx="640" cy="200" r="20"/><circle cx="680" cy="200" r="20"/><circle cx="720" cy="200" r="20"/><circle cx="760" cy="200" r="20"/><circle cx="800" cy="200" r="20"/><circle cx="840" cy="200" r="20"/><circle cx="880" cy="200" r="20"/><circle cy="240" r="19.46428571"/><circle cx="40" cy="240" r="19.46428571"/><circle cx="80" cy="240" r="19.46428571"/><circle cx="120" cy="240" r="19.46428571"/><circle cx="160" cy="240" r="19.46428571"/><circle cx="200" cy="240" r="19.46428571"/><circle cx="240" cy="240" r="19.46428571"/><circle cx="280" cy="240" r="19.46428571"/><circle cx="320" cy="240" r="19.46428571"/><circle cx="360" cy="240" r="19.46428571"/><circle cx="400" cy="240" r="19.46428571"/><circle cx="440" cy="240" r="19.46428571"/><circle cx="480" cy="240" r="19.46428571"/><circle cx="520" cy="240" r="19.46428571"/><circle cx="560" cy="240" r="19.46428571"/><circle cx="600" cy="240" r="19.46428571"/><circle cx="640" cy="240" r="19.46428571"/><circle cx="680" cy="240" r="19.46428571"/><circle cx="720" cy="240" r="19.46428571"/><circle cx="760" cy="240" r="19.46428571"/><circle cx="800" cy="240" r="19.46428571"/><circle cx="840" cy="240" r="19.46428571"/><circle cx="880" cy="240" r="19.46428571"/><circle cy="280" r="18.125"/><circle cx="40" cy="280" r="18.125"/><circle cx="80" cy="280" r="18.125"/><circle cx="120" cy="280" r="18.125"/><circle cx="160" cy="280" r="18.125"/><circle cx="200" cy="280" r="18.125"/><circle cx="240" cy="280" r="18.125"/><circle cx="280" cy="280" r="18.125"/><circle cx="320" cy="280" r="18.125"/><circle cx="360" cy="280" r="18.125"/><circle cx="400" cy="280" r="18.125"/><circle cx="440" cy="280" r="18.125"/><circle cx="480" cy="280" r="18.125"/><circle cx="520" cy="280" r="18.125"/><circle cx="560" cy="280" r="18.125"/><circle cx="600" cy="280" r="18.125"/><circle cx="640" cy="280" r="18.125"/><circle cx="680" cy="280" r="18.125"/><circle cx="720" cy="280" r="18.125"/><circle cx="760" cy="280" r="18.125"/><circle cx="800" cy="280" r="18.125"/><circle cx="840" cy="280" r="18.125"/><circle cx="880" cy="280" r="18.125"/><circle cy="320" r="16.78571429"/><circle cx="40" cy="320" r="16.78571429"/><circle cx="80" cy="320" r="16.78571429"/><circle cx="120" cy="320" r="16.78571429"/><circle cx="160" cy="320" r="16.78571429"/><circle cx="200" cy="320" r="16.78571429"/><circle cx="240" cy="320" r="16.78571429"/><circle cx="280" cy="320" r="16.78571429"/><circle cx="320" cy="320" r="16.78571429"/><circle cx="360" cy="320" r="16.78571429"/><circle cx="400" cy="320" r="16.78571429"/><circle cx="440" cy="320" r="16.78571429"/><circle cx="480" cy="320" r="16.78571429"/><circle cx="520" cy="320" r="16.78571429"/><circle cx="560" cy="320" r="16.78571429"/><circle cx="600" cy="320" r="16.78571429"/><circle cx="640" cy="320" r="16.78571429"/><circle cx="680" cy="320" r="16.78571429"/><circle cx="720" cy="320" r="16.78571429"/><circle cx="760" cy="320" r="16.78571429"/><circle cx="800" cy="320" r="16.78571429"/><circle cx="840" cy="320" r="16.78571429"/><circle cx="880" cy="320" r="16.78571429"/><circle cy="360" r="15.44642857"/><circle cx="40" cy="360" r="15.44642857"/><circle cx="80" cy="360" r="15.44642857"/><circle cx="120" cy="360" r="15.44642857"/><circle cx="160" cy="360" r="15.44642857"/><circle cx="200" cy="360" r="15.44642857"/><circle cx="240" cy="360" r="15.44642857"/><circle cx="280" cy="360" r="15.44642857"/><circle cx="320" cy="360" r="15.44642857"/><circle cx="360" cy="360" r="15.44642857"/><circle cx="400" cy="360" r="15.44642857"/><circle cx="440" cy="360" r="15.44642857"/><circle cx="480" cy="360" r="15.44642857"/><circle cx="520" cy="360" r="15.44642857"/><circle cx="560" cy="360" r="15.44642857"/><circle cx="600" cy="360" r="15.44642857"/><circle cx="640" cy="360" r="15.44642857"/><circle cx="680" cy="360" r="15.44642857"/><circle cx="720" cy="360" r="15.44642857"/><circle cx="760" cy="360" r="15.44642857"/><circle cx="800" cy="360" r="15.44642857"/><circle cx="840" cy="360" r="15.44642857"/><circle cx="880" cy="360" r="15.44642857"/><circle cy="400" r="14.10714286"/><circle cx="40" cy="400" r="14.10714286"/><circle cx="80" cy="400" r="14.10714286"/><circle cx="120" cy="400" r="14.10714286"/><circle cx="160" cy="400" r="14.10714286"/><circle cx="200" cy="400" r="14.10714286"/><circle cx="240" cy="400" r="14.10714286"/><circle cx="280" cy="400" r="14.10714286"/><circle cx="320" cy="400" r="14.10714286"/><circle cx="360" cy="400" r="14.10714286"/><circle cx="400" cy="400" r="14.10714286"/><circle cx="440" cy="400" r="14.10714286"/><circle cx="480" cy="400" r="14.10714286"/><circle cx="520" cy="400" r="14.10714286"/><circle cx="560" cy="400" r="14.10714286"/><circle cx="600" cy="400" r="14.10714286"/><circle cx="640" cy="400" r="14.10714286"/><circle cx="680" cy="400" r="14.10714286"/><circle cx="720" cy="400" r="14.10714286"/><circle cx="760" cy="400" r="14.10714286"/><circle cx="800" cy="400" r="14.10714286"/><circle cx="840" cy="400" r="14.10714286"/><circle cx="880" cy="400" r="14.10714286"/><circle cy="440" r="12.76785714"/><circle cx="40" cy="440" r="12.76785714"/><circle cx="80" cy="440" r="12.76785714"/><circle cx="120" cy="440" r="12.76785714"/><circle cx="160" cy="440" r="12.76785714"/><circle cx="200" cy="440" r="12.76785714"/><circle cx="240" cy="440" r="12.76785714"/><circle cx="280" cy="440" r="12.76785714"/><circle cx="320" cy="440" r="12.76785714"/><circle cx="360" cy="440" r="12.76785714"/><circle cx="400" cy="440" r="12.76785714"/><circle cx="440" cy="440" r="12.76785714"/><circle cx="480" cy="440" r="12.76785714"/><circle cx="520" cy="440" r="12.76785714"/><circle cx="560" cy="440" r="12.76785714"/><circle cx="600" cy="440" r="12.76785714"/><circle cx="640" cy="440" r="12.76785714"/><circle cx="680" cy="440" r="12.76785714"/><circle cx="720" cy="440" r="12.76785714"/><circle cx="760" cy="440" r="12.76785714"/><circle cx="800" cy="440" r="12.76785714"/><circle cx="840" cy="440" r="12.76785714"/><circle cx="880" cy="440" r="12.76785714"/><circle cy="480" r="11.42857143"/><circle cx="40" cy="480" r="11.42857143"/><circle cx="80" cy="480" r="11.42857143"/><circle cx="120" cy="480" r="11.42857143"/><circle cx="160" cy="480" r="11.42857143"/><circle cx="200" cy="480" r="11.42857143"/><circle cx="240" cy="480" r="11.42857143"/><circle cx="280" cy="480" r="11.42857143"/><circle cx="320" cy="480" r="11.42857143"/><circle cx="360" cy="480" r="11.42857143"/><circle cx="400" cy="480" r="11.42857143"/><circle cx="440" cy="480" r="11.42857143"/><circle cx="480" cy="480" r="11.42857143"/><circle cx="520" cy="480" r="11.42857143"/><circle cx="560" cy="480" r="11.42857143"/><circle cx="600" cy="480" r="11.42857143"/><circle cx="640" cy="480" r="11.42857143"/><circle cx="680" cy="480" r="11.42857143"/><circle cx="720" cy="480" r="11.42857143"/><circle cx="760" cy="480" r="11.42857143"/><circle cx="800" cy="480" r="11.42857143"/><circle cx="840" cy="480" r="11.42857143"/><circle cx="880" cy="480" r="11.42857143"/><circle cy="520" r="10.08928571"/><circle cx="40" cy="520" r="10.08928571"/><circle cx="80" cy="520" r="10.08928571"/><circle cx="120" cy="520" r="10.08928571"/><circle cx="160" cy="520" r="10.08928571"/><circle cx="200" cy="520" r="10.08928571"/><circle cx="240" cy="520" r="10.08928571"/><circle cx="280" cy="520" r="10.08928571"/><circle cx="320" cy="520" r="10.08928571"/><circle cx="360" cy="520" r="10.08928571"/><circle cx="400" cy="520" r="10.08928571"/><circle cx="440" cy="520" r="10.08928571"/><circle cx="480" cy="520" r="10.08928571"/><circle cx="520" cy="520" r="10.08928571"/><circle cx="560" cy="520" r="10.08928571"/><circle cx="600" cy="520" r="10.08928571"/><circle cx="640" cy="520" r="10.08928571"/><circle cx="680" cy="520" r="10.08928571"/><circle cx="720" cy="520" r="10.08928571"/><circle cx="760" cy="520" r="10.08928571"/><circle cx="800" cy="520" r="10.08928571"/><circle cx="840" cy="520" r="10.08928571"/><circle cx="880" cy="520" r="10.08928571"/><circle cy="560" r="8.75"/><circle cx="40" cy="560" r="8.75"/><circle cx="80" cy="560" r="8.75"/><circle cx="120" cy="560" r="8.75"/><circle cx="160" cy="560" r="8.75"/><circle cx="200" cy="560" r="8.75"/><circle cx="240" cy="560" r="8.75"/><circle cx="280" cy="560" r="8.75"/><circle cx="320" cy="560" r="8.75"/><circle cx="360" cy="560" r="8.75"/><circle cx="400" cy="560" r="8.75"/><circle cx="440" cy="560" r="8.75"/><circle cx="480" cy="560" r="8.75"/><circle cx="520" cy="560" r="8.75"/><circle cx="560" cy="560" r="8.75"/><circle cx="600" cy="560" r="8.75"/><circle cx="640" cy="560" r="8.75"/><circle cx="680" cy="560" r="8.75"/><circle cx="720" cy="560" r="8.75"/><circle cx="760" cy="560" r="8.75"/><circle cx="800" cy="560" r="8.75"/><circle cx="840" cy="560" r="8.75"/><circle cx="880" cy="560" r="8.75"/><circle cy="600" r="7.41071429"/><circle cx="40" cy="600" r="7.41071429"/><circle cx="80" cy="600" r="7.41071429"/><circle cx="120" cy="600" r="7.41071429"/><circle cx="160" cy="600" r="7.41071429"/><circle cx="200" cy="600" r="7.41071429"/><circle cx="240" cy="600" r="7.41071429"/><circle cx="280" cy="600" r="7.41071429"/><circle cx="320" cy="600" r="7.41071429"/><circle cx="360" cy="600" r="7.41071429"/><circle cx="400" cy="600" r="7.41071429"/><circle cx="440" cy="600" r="7.41071429"/><circle cx="480" cy="600" r="7.41071429"/><circle cx="520" cy="600" r="7.41071429"/><circle cx="560" cy="600" r="7.41071429"/><circle cx="600" cy="600" r="7.41071429"/><circle cx="640" cy="600" r="7.41071429"/><circle cx="680" cy="600" r="7.41071429"/><circle cx="720" cy="600" r="7.41071429"/><circle cx="760" cy="600" r="7.41071429"/><circle cx="800" cy="600" r="7.41071429"/><circle cx="840" cy="600" r="7.41071429"/><circle cx="880" cy="600" r="7.41071429"/><circle cy="640" r="6.07142857"/><circle cx="40" cy="640" r="6.07142857"/><circle cx="80" cy="640" r="6.07142857"/><circle cx="120" cy="640" r="6.07142857"/><circle cx="160" cy="640" r="6.07142857"/><circle cx="200" cy="640" r="6.07142857"/><circle cx="240" cy="640" r="6.07142857"/><circle cx="280" cy="640" r="6.07142857"/><circle cx="320" cy="640" r="6.07142857"/><circle cx="360" cy="640" r="6.07142857"/><circle cx="400" cy="640" r="6.07142857"/><circle cx="440" cy="640" r="6.07142857"/><circle cx="480" cy="640" r="6.07142857"/><circle cx="520" cy="640" r="6.07142857"/><circle cx="560" cy="640" r="6.07142857"/><circle cx="600" cy="640" r="6.07142857"/><circle cx="640" cy="640" r="6.07142857"/><circle cx="680" cy="640" r="6.07142857"/><circle cx="720" cy="640" r="6.07142857"/><circle cx="760" cy="640" r="6.07142857"/><circle cx="800" cy="640" r="6.07142857"/><circle cx="840" cy="640" r="6.07142857"/><circle cx="880" cy="640" r="6.07142857"/><circle cy="680" r="5"/><circle cx="40" cy="680" r="5"/><circle cx="80" cy="680" r="5"/><circle cx="120" cy="680" r="5"/><circle cx="160" cy="680" r="5"/><circle cx="200" cy="680" r="5"/><circle cx="240" cy="680" r="5"/><circle cx="280" cy="680" r="5"/><circle cx="320" cy="680" r="5"/><circle cx="360" cy="680" r="5"/><circle cx="400" cy="680" r="5"/><circle cx="440" cy="680" r="5"/><circle cx="480" cy="680" r="5"/><circle cx="520" cy="680" r="5"/><circle cx="560" cy="680" r="5"/><circle cx="600" cy="680" r="5"/><circle cx="640" cy="680" r="5"/><circle cx="680" cy="680" r="5"/><circle cx="720" cy="680" r="5"/><circle cx="760" cy="680" r="5"/><circle cx="800" cy="680" r="5"/><circle cx="840" cy="680" r="5"/><circle cx="880" cy="680" r="5"/><circle cy="720" r="5"/><circle cx="40" cy="720" r="5"/><circle cx="80" cy="720" r="5"/><circle cx="120" cy="720" r="5"/><circle cx="160" cy="720" r="5"/><circle cx="200" cy="720" r="5"/><circle cx="240" cy="720" r="5"/><circle cx="280" cy="720" r="5"/><circle cx="320" cy="720" r="5"/><circle cx="360" cy="720" r="5"/><circle cx="400" cy="720" r="5"/><circle cx="440" cy="720" r="5"/><circle cx="480" cy="720" r="5"/><circle cx="520" cy="720" r="5"/><circle cx="560" cy="720" r="5"/><circle cx="600" cy="720" r="5"/><circle cx="640" cy="720" r="5"/><circle cx="680" cy="720" r="5"/><circle cx="720" cy="720" r="5"/><circle cx="760" cy="720" r="5"/><circle cx="800" cy="720" r="5"/><circle cx="840" cy="720" r="5"/><circle cx="880" cy="720" r="5"/><circle cy="760" r="5"/><circle cx="40" cy="760" r="5"/><circle cx="80" cy="760" r="5"/><circle cx="120" cy="760" r="5"/><circle cx="160" cy="760" r="5"/><circle cx="200" cy="760" r="5"/><circle cx="240" cy="760" r="5"/><circle cx="280" cy="760" r="5"/><circle cx="320" cy="760" r="5"/><circle cx="360" cy="760" r="5"/><circle cx="400" cy="760" r="5"/><circle cx="440" cy="760" r="5"/><circle cx="480" cy="760" r="5"/><circle cx="520" cy="760" r="5"/><circle cx="560" cy="760" r="5"/><circle cx="600" cy="760" r="5"/><circle cx="640" cy="760" r="5"/><circle cx="680" cy="760" r="5"/><circle cx="720" cy="760" r="5"/><circle cx="760" cy="760" r="5"/><circle cx="800" cy="760" r="5"/><circle cx="840" cy="760" r="5"/><circle cx="880" cy="760" r="5"/><circle cy="800" r="5"/><circle cx="40" cy="800" r="5"/><circle cx="80" cy="800" r="5"/><circle cx="120" cy="800" r="5"/><circle cx="160" cy="800" r="5"/><circle cx="200" cy="800" r="5"/><circle cx="240" cy="800" r="5"/><circle cx="280" cy="800" r="5"/><circle cx="320" cy="800" r="5"/><circle cx="360" cy="800" r="5"/><circle cx="400" cy="800" r="5"/><circle cx="440" cy="800" r="5"/><circle cx="480" cy="800" r="5"/><circle cx="520" cy="800" r="5"/><circle cx="560" cy="800" r="5"/><circle cx="600" cy="800" r="5"/><circle cx="640" cy="800" r="5"/><circle cx="680" cy="800" r="5"/><circle cx="720" cy="800" r="5"/><circle cx="760" cy="800" r="5"/><circle cx="800" cy="800" r="5"/><circle cx="840" cy="800" r="5"/><circle cx="880" cy="800" r="5"/><circle cy="840" r="5"/><circle cx="40" cy="840" r="5"/><circle cx="80" cy="840" r="5"/><circle cx="120" cy="840" r="5"/><circle cx="160" cy="840" r="5"/><circle cx="200" cy="840" r="5"/><circle cx="240" cy="840" r="5"/><circle cx="280" cy="840" r="5"/><circle cx="320" cy="840" r="5"/><circle cx="360" cy="840" r="5"/><circle cx="400" cy="840" r="5"/><circle cx="440" cy="840" r="5"/><circle cx="480" cy="840" r="5"/><circle cx="520" cy="840" r="5"/><circle cx="560" cy="840" r="5"/><circle cx="600" cy="840" r="5"/><circle cx="640" cy="840" r="5"/><circle cx="680" cy="840" r="5"/><circle cx="720" cy="840" r="5"/><circle cx="760" cy="840" r="5"/><circle cx="800" cy="840" r="5"/><circle cx="840" cy="840" r="5"/><circle cx="880" cy="840" r="5"/><circle cy="880" r="5"/><circle cx="40" cy="880" r="5"/><circle cx="80" cy="880" r="5"/><circle cx="120" cy="880" r="5"/><circle cx="160" cy="880" r="5"/><circle cx="200" cy="880" r="5"/><circle cx="240" cy="880" r="5"/><circle cx="280" cy="880" r="5"/><circle cx="320" cy="880" r="5"/><circle cx="360" cy="880" r="5"/><circle cx="400" cy="880" r="5"/><circle cx="440" cy="880" r="5"/><circle cx="480" cy="880" r="5"/><circle cx="520" cy="880" r="5"/><circle cx="560" cy="880" r="5"/><circle cx="600" cy="880" r="5"/><circle cx="640" cy="880" r="5"/><circle cx="680" cy="880" r="5"/><circle cx="720" cy="880" r="5"/><circle cx="760" cy="880" r="5"/><circle cx="800" cy="880" r="5"/><circle cx="840" cy="880" r="5"/><circle cx="880" cy="880" r="5"/></g></svg>